<?xml version="1.0" encoding="UTF-8" standalone="no"?>
<!-- Created with Inkscape (http://www.inkscape.org/) -->

<svg
   width="400"
   height="400"
   opacity="0.15"
   viewBox="0 0 105.83333 105.83333"
   version="1.1"
   id="svg1"
   xml:space="preserve"
   xmlns="http://www.w3.org/2000/svg"
   xmlns:svg="http://www.w3.org/2000/svg"><defs
     id="defs1" /><g
     id="layer1"><path
       style="fill:#000000"
       d="m 48.670216,103.75101 c -0.35435,-0.35435 -0.41578,-1.33284 -0.41578,-6.622892 0,-5.66272 0.0406,-6.22379 0.46302,-6.39725 0.64651,-0.26548 7.9085,-0.23906 8.17914,0.0298 0.12176,0.12094 0.2579,2.64383 0.30252,5.60641 l 0.0811,5.386522 -2.72697,0.82462 c -1.49984,0.45354 -3.2542,0.99651 -3.89859,1.20661 -1.4544,0.47419 -1.47689,0.47381 -1.98448,-0.0338 z m -10.93296,-7.070112 -4.29948,-2.16388 v -6.00099 c 0,-4.56248 0.0793,-6.02882 0.33073,-6.11709 0.1819,-0.0639 2.32502,0.87939 4.7625,2.09609 l 4.43177,2.21219 v 5.57218 c 0,5.14914 -0.16543,6.62638 -0.73692,6.58055 -0.10402,-0.008 -2.12389,-0.98892 -4.4886,-2.17905 z m 24.81399,1.15328 c -0.16177,-0.30229 -0.27389,-2.61085 -0.27389,-5.63965 v -5.12788 l 3.50573,-1.80561 c 1.92815,-0.99308 3.88142,-2.02986 4.34061,-2.30396 0.76411,-0.45613 0.87063,-0.46261 1.25677,-0.0765 0.35851,0.35851 0.42189,1.23131 0.42189,5.80953 v 5.38765 l -4.06784,2.13408 c -2.23731,1.17375 -4.25718,2.13409 -4.48861,2.13409 -0.23142,0 -0.54402,-0.2303 -0.69466,-0.51177 z m -35.86035,-6.88211 c -0.43656,-0.10778 -2.376935,-0.99223 -4.311941,-1.96543 l -3.518193,-1.76947 0.04055,-5.66824 c 0.03032,-4.23889 0.128987,-5.78807 0.391259,-6.14343 0.327722,-0.44403 0.637798,-0.33229 4.730549,1.70468 l 4.379836,2.17985 -0.004,5.54817 c -0.003,4.64194 -0.0706,5.6148 -0.41191,5.95609 -0.22435,0.22435 -0.42917,0.39572 -0.45515,0.38082 -0.026,-0.0149 -0.40444,-0.11526 -0.841,-0.22304 z m 50.40591,-5.62209 0.003,-5.90174 4.37447,-2.21529 c 2.40596,-1.2184 4.41384,-2.1709 4.46196,-2.11666 0.0481,0.0542 0.13219,2.58971 0.18681,5.63439 l 0.0993,5.53577 -1.19062,0.69716 c -0.65485,0.38344 -2.70867,1.50063 -4.56406,2.48264 l -3.37344,1.78547 z m -28.66598,-0.12501 c -0.2204,-0.2204 -0.23557,-19.46987 -0.0158,-20.04259 0.13636,-0.35536 0.74729,-0.41852 4.04813,-0.41852 2.67085,0 3.98689,0.0994 4.20502,0.3175 0.45544,0.45544 0.45544,19.54707 0,20.0025 -0.34169,0.34169 -7.90718,0.4713 -8.23736,0.14111 z m -39.731598,-3.09102 -4.2333329,-2.15655 -0.06446,-5.68854 c -0.03545,-3.1287 -0.0038,-5.95504 0.07041,-6.28075 0.129318,-0.56785 0.325196,-0.49724 4.7608129,1.71628 l 4.625946,2.3085 v 5.88118 c 0,5.33039 -0.04336,5.90437 -0.463021,6.12881 -0.3538,0.18921 -1.461612,-0.26108 -4.696355,-1.90893 z m 82.942468,0.47769 c -0.16057,-0.42233 -0.24223,-2.7129 -0.19974,-5.60276 l 0.0719,-4.88837 4.48462,-2.33836 c 2.46654,-1.2861 4.579894,-2.27948 4.696354,-2.2075 0.11646,0.072 0.21174,2.5549 0.21174,5.51762 v 5.38677 l -0.8599,0.51724 c -0.472944,0.28448 -2.496414,1.37506 -4.496614,2.4235 l -3.63671,1.90625 z m -53.57371,-3.17548 -4.23334,-1.887 -0.0694,-9.69994 -0.0694,-9.69994 4.03816,0.004 c 2.22098,0.002 4.18826,0.0993 4.37173,0.21581 0.2617,0.16613 0.31871,2.66207 0.26458,11.58289 l -0.069,11.37113 z m 24.20937,-9.32771 c 0,-8.45491 0.0804,-11.40462 0.3175,-11.64167 0.2182,-0.2182 1.53626,-0.3175 4.21443,-0.3175 3.18989,0 3.97238,0.0754 4.31271,0.41577 0.36203,0.36203 0.41578,1.60452 0.41578,9.61144 v 9.19567 l -4.34382,2.03023 c -2.38909,1.11662 -4.47269,2.03022 -4.6302,2.03022 -0.20102,0 -0.2864,-3.37611 -0.2864,-11.32416 z m -38.695313,2.80321 -4.167188,-1.8936 v -12.12949 -12.12949 l 4.29948,0.0727 4.299481,0.0727 0.0685,13.95678 c 0.0377,7.67622 -0.0219,13.9539 -0.13229,13.95039 -0.11043,-0.004 -2.07601,-0.8585 -4.367968,-1.89999 z m 53.511983,-12.27113 v -14.13292 h 4.36562 4.36563 l -8.3e-4,12.10469 -8.3e-4,12.10469 -4.36479,2.02823 -4.3648,2.02824 z m -65.219797,6.9126 c -2.393607,-0.94154 -6.7736499,-2.9677 -6.9703289,-3.22439 -0.09538,-0.12448 -0.113891,-7.60821 -0.04113,-16.63051 l 0.132291,-16.40417 h 4.3656259 4.365625 l 0.06795,18.4547 c 0.03737,10.15007 -0.02216,18.44887 -0.132292,18.44175 -0.11013,-0.007 -0.914611,-0.29393 -1.787736,-0.63738 z m 79.507297,-18.1351 v -18.52084 h 4.23333 4.23334 v 16.62651 16.6265 l -4.08259,1.89433 c -2.24542,1.04188 -4.15042,1.89433 -4.23333,1.89433 -0.0829,0 -0.15075,-8.33437 -0.15075,-18.52083 z m -41.53959,6.77995 v -3.00964 l -0.73463,-0.14693 c -1.8276,-0.36552 -3.21813,-2.46013 -3.22831,-4.86293 -0.01,-2.32222 0.75521,-3.60617 2.77232,-4.65272 1.47283,-0.76416 5.00447,-0.95442 6.57595,-0.35426 2.19222,0.83722 3.32273,2.92084 2.94638,5.43048 -0.25994,1.73339 -0.8094,2.62584 -1.92752,3.13068 -1.89853,0.8572 -1.90627,0.87483 -1.90627,4.34096 v 3.13399 h -2.24896 -2.24896 z m 3.5362,-7.06374 c 0.38342,-0.3016 0.69714,-0.77785 0.69714,-1.05833 0,-0.71668 -0.9339,-1.5683 -1.7198,-1.5683 -0.79449,0 -1.71979,0.85412 -1.71979,1.5875 0,0.66614 0.90065,1.5875 1.55182,1.5875 0.27142,0 0.8072,-0.24677 1.19063,-0.54837 z m -17.90234,-3.51138 0.16086,-7.23475 -0.81318,-0.16263 c -1.06094,-0.21219 -2.59968,-1.57957 -3.28151,-2.91608 -1.12787,-2.2108 -0.52408,-5.29421 1.34459,-6.8666 1.42142,-1.19605 2.91649,-1.59325 5.50382,-1.46222 4.53798,0.22981 6.74894,2.50933 6.33664,6.53311 -0.22207,2.16726 -1.29934,3.7317 -3.02634,4.39496 l -1.37785,0.52917 -0.003,7.20989 -0.003,7.2099 h -2.501 -2.501 z m 4.50113,-11.71598 c 0.52514,-0.71817 0.40602,-1.56773 -0.34496,-2.46022 -0.53899,-0.64056 -0.8949,-0.81405 -1.66991,-0.81405 -2.30494,0 -2.95887,2.52517 -0.95241,3.67777 0.72264,0.41511 2.55044,0.16656 2.96728,-0.4035 z m 24.15251,7.8713 v -10.81484 l -0.73462,-0.14693 c -1.84642,-0.36928 -3.21829,-2.45818 -3.22832,-4.91561 -0.008,-2.05324 0.49249,-3.4296 1.70675,-4.6901 1.26629,-1.31451 2.41068,-1.68807 5.16661,-1.68653 5.39005,0.003 8.10663,4.23744 5.63359,8.78124 -0.66119,1.21482 -2.51968,2.85636 -3.23387,2.85636 -0.19636,0 -0.28305,3.28201 -0.28305,10.71563 v 10.71563 h -2.51355 -2.51354 z m 4.44803,-15.12463 c 1.40987,-1.31349 0.27594,-3.42928 -1.83787,-3.42928 -1.90468,0 -2.79481,1.9842 -1.5057,3.35639 0.76074,0.80977 2.51165,0.84794 3.34357,0.0729 z m -47.839694,3.86705 v -10.97909 l -2.182813,-0.0769 -2.182812,-0.0769 v -5.55625 -5.5562499 h 7.011459 7.01146 l 0.0741,5.2916599 c 0.0719,5.1322 0.057,5.30562 -0.49233,5.75469 -0.40782,0.33337 -1.03895,0.46302 -2.25394,0.46302 h -1.68751 l -0.0691,10.78177 -0.0691,10.78178 -2.57969,0.0757 -2.579688,0.0757 z m 4.811827,-15.22904 c 0.670497,-0.82803 0.612287,-2.20255 -0.129818,-3.0653 -1.07796,-1.2532 -3.709889,-0.90024 -4.3882,0.58849 -0.473346,1.03888 -0.345995,1.66679 0.512085,2.52487 0.738356,0.73836 0.919875,0.79494 2.165993,0.67521 0.98612,-0.0948 1.492039,-0.29363 1.83994,-0.72327 z m 53.661087,16.27822 v -9.64617 l -2.05052,-0.0773 -2.05052,-0.0773 -0.0715,-5.66959 c -0.055,-4.35908 0.006,-5.7189 0.26458,-5.88292 0.18487,-0.11734 3.21066,-0.2151699 6.72397,-0.2173899 5.58322,-0.004 6.40807,0.0487 6.54844,0.4144599 0.0883,0.23018 0.1606,2.79297 0.1606,5.69509 v 5.27658 l -0.67869,0.25803 c -0.37327,0.14192 -1.3853,0.25804 -2.24896,0.25804 h -1.57027 v 9.65729 9.65729 h -2.51354 -2.51355 z m 4.51827,-14.14599 c 0.95431,-0.9543 0.98652,-1.84314 0.10479,-2.89102 -0.80454,-0.95614 -1.91313,-1.24759 -3.16896,-0.83313 -1.03896,0.34289 -1.4541,0.9253 -1.4541,2.04003 0,2.21771 2.90274,3.29966 4.51827,1.68412 z m -33.88702,8.97548 v -11.64166 h -1.96273 c -1.07951,0 -2.15107,-0.0723 -2.38125,-0.1606 -0.36477,-0.13998 -0.41852,-0.9385 -0.41852,-6.2177099 v -6.05711 h 7.28101 7.28101 l -0.0711,6.01927 -0.0711,6.0192699 -2.3151,0.0764 -2.3151,0.0764 v 11.76366 11.76366 h -2.51355 -2.51354 z m 4.06396,-15.71016 c 0.53302,-0.22271 1.00144,-0.6769099 1.20505,-1.1684799 0.64058,-1.54648 -0.94807,-3.49428 -2.84999,-3.49428 -2.44369,0 -3.41804,2.13612 -1.7933,3.93154 1.0023,1.1075899 2.01963,1.3239499 3.43824,0.7312199 z m 39.77322,16.12058 c -3.57755,-1.27591 -3.77359,-5.41549 -0.34134,-7.20737 0.99671,-0.52035 3.56621,-0.51468 4.58103,0.0101 1.00965,0.52211 2.400914,2.09943 2.619314,2.9696 0.25916,1.03256 -0.0764,2.50273 -0.730064,3.19851 -0.67027,0.71347 -2.77045,1.41815 -4.17507,1.40087 -0.51929,-0.006 -1.39854,-0.17366 -1.95387,-0.37171 z M 6.762379,25.934308 c -2.0980899,-1.0339 -3.0761229,-3.99547 -1.9247179,-5.82822 1.1395319,-1.81385 4.3229059,-2.57293 6.4648659,-1.54156 2.169938,1.04484 3.155683,4.1433 1.869743,5.87711 -1.324937,1.78639 -4.373296,2.49626 -6.409891,1.49267 z m 30.737567,-8.00222 c -1.12474,-0.68582 -1.59526,-2.08102 -1.05448,-3.12677 0.93869,-1.81524 3.88456,-1.83318 4.81736,-0.0293 0.74957,1.4495 0.3368,2.69475 -1.09098,3.29132 -1.18786,0.49632 -1.67679,0.47158 -2.6719,-0.13521 z m 27.80748,-4.15916 c -0.64058,-0.6912 -0.84764,-1.91352 -0.48447,-2.85993 0.22658,-0.59046 1.49325,-1.2024799 2.4887,-1.2024799 1.99704,0 3.13166,2.7060099 1.7246,4.1130699 -0.94624,0.94624 -2.82863,0.92066 -3.72883,-0.0507 z"
       id="path1" /></g></svg>
