<?xml version="1.0" encoding="UTF-8" standalone="no"?>
<!DOCTYPE svg PUBLIC "-//W3C//DTD SVG 1.1//EN" "http://www.w3.org/Graphics/SVG/1.1/DTD/svg11.dtd">
<!-- Created with Vectornator (http://vectornator.io/) -->
<svg height="100%" stroke-miterlimit="10" style="fill-rule:nonzero;clip-rule:evenodd;stroke-linecap:round;stroke-linejoin:round;" version="1.1" viewBox="0 0 300 300" width="100%" xml:space="preserve" xmlns="http://www.w3.org/2000/svg" xmlns:vectornator="http://vectornator.io" xmlns:xlink="http://www.w3.org/1999/xlink">
<defs/>
<g id="Layer-2" vectornator:layerName="Layer 2"/>
<clipPath id="ArtboardFrame">
<rect height="300" width="300" x="0" y="0"/>
</clipPath>
<g clip-path="url(#ArtboardFrame)" id="Layer-3" vectornator:layerName="Layer 3">
<path d="M587.914-147.829L644.699-69.574C648.828-64.3123 656.663-63.0902 662.199-66.8444L662.971-67.3679C670.246-72.3016 671.282-81.511 665.285-87.9378L596.112-156.151" fill="#9eacfd" fill-rule="nonzero" opacity="1" stroke="none"/>
</g>
<g id="Layer-1" vectornator:layerName="Layer 1"/>
<g clip-path="url(#ArtboardFrame)" id="Layer-5" vectornator:layerName="Layer 5">
<path d="M484.417-201.99L497.243-201.99C498.851-201.99 500.156-200.686 500.156-199.077L500.156-142.481C500.156-140.873 498.851-139.568 497.243-139.568L484.417-139.568C482.808-139.568 481.504-140.873 481.504-142.481L481.504-199.077C481.504-200.686 482.808-201.99 484.417-201.99Z" fill="#506efd" fill-rule="nonzero" opacity="1" stroke="none"/>
<path d="M522.157-230.282L533.615-230.282C535.602-230.282 537.212-228.594 537.212-226.513L537.212-134.662C537.212-132.58 535.602-130.893 533.615-130.893L522.157-130.893C520.17-130.893 518.56-132.58 518.56-134.662L518.56-226.513C518.56-228.594 520.17-230.282 522.157-230.282Z" fill="#506efd" fill-rule="nonzero" opacity="1" stroke="none"/>
<path d="M559.674-271.884L571.367-271.884C573.288-271.884 574.846-270.183 574.846-268.084L574.846-136.782C574.846-134.684 573.288-132.983 571.367-132.983L559.674-132.983C557.752-132.983 556.195-134.684 556.195-136.782L556.195-268.084C556.195-270.183 557.752-271.884 559.674-271.884Z" fill="#506efd" fill-rule="nonzero" opacity="1" stroke="none"/>
</g>
<g clip-path="url(#ArtboardFrame)" id="Layer-4" vectornator:layerName="Layer 4">
<path d="M441.325-221.867C441.325-272.977 482.758-314.41 533.869-314.41C584.979-314.41 626.412-272.977 626.412-221.867C626.412-170.757 584.979-129.323 533.869-129.323C482.758-129.323 441.325-170.757 441.325-221.867Z" fill="none" opacity="1" stroke="#9eacfd" stroke-linecap="butt" stroke-linejoin="miter" stroke-width="11"/>
<path d="M179.531 103.004L179.572 103.004L179.572 103.205L179.531 103.205L179.531 103.004Z" fill="#208eed" fill-rule="nonzero" opacity="1" stroke="none"/>
<path d="M134.59 46.2176C134.59 46.1733 134.626 46.1374 134.671 46.1374C134.715 46.1374 134.751 46.1733 134.751 46.2176C134.751 46.2619 134.715 46.2979 134.671 46.2979C134.626 46.2979 134.59 46.2619 134.59 46.2176Z" fill="#000000" fill-rule="nonzero" opacity="1" stroke="none"/>
<g opacity="1">
<path d="M114.288 111.88L72.8587 112L75.7585 99.3542C76.4281 96.4339 79.3997 94.0666 82.3957 94.0666L105.332 94.0666C108.241 94.0666 111.078 96.376 111.668 99.2249L114.288 111.88Z" fill="#9eacfd" fill-rule="nonzero" opacity="1" stroke="none"/>
<path d="M33.08 150.008L33.2001 191.437L20.5544 188.538C17.6342 187.868 15.2668 184.896 15.2668 181.9L15.2668 158.964C15.2668 156.055 17.5763 153.218 20.4251 152.628L33.08 150.008Z" fill="#9eacfd" fill-rule="nonzero" opacity="1" stroke="none"/>
<path d="M65.5011 114.025L36.2798 143.395L29.3925 132.4C27.802 129.861 28.2307 126.086 30.35 123.968L46.5743 107.756C48.6322 105.699 52.2712 105.328 54.7022 106.926L65.5011 114.025Z" fill="#9eacfd" fill-rule="nonzero" opacity="1" stroke="none"/>
<path d="M72.8104 232.046L114.24 231.926L111.34 244.572C110.671 247.492 107.699 249.859 104.703 249.859L81.7671 249.859C78.8578 249.859 76.0211 247.55 75.4311 244.701L72.8104 232.046Z" fill="#9eacfd" fill-rule="nonzero" opacity="1" stroke="none"/>
<path d="M154.905 191.427L154.785 149.997L167.431 152.897C170.351 153.567 172.718 156.538 172.718 159.534L172.718 182.47C172.718 185.379 170.409 188.216 167.56 188.806L154.905 191.427Z" fill="#9eacfd" fill-rule="nonzero" opacity="1" stroke="none"/>
<path d="M36.614 200.483L66.0431 229.644L55.0625 236.554C52.5267 238.15 48.7508 237.729 46.6287 235.614L30.3833 219.423C28.3227 217.369 27.9438 213.731 29.5369 211.297L36.614 200.483Z" fill="#9eacfd" fill-rule="nonzero" opacity="1" stroke="none"/>
<path d="M150.912 141.892L120.985 113.243L131.845 106.145C134.353 104.505 138.135 104.861 140.293 106.939L156.815 122.848C158.911 124.866 159.353 128.497 157.802 130.958L150.912 141.892Z" fill="#9eacfd" fill-rule="nonzero" opacity="1" stroke="none"/>
<path d="M121.945 229.728L151.328 200.52L158.154 211.553C159.731 214.101 159.281 217.873 157.15 219.979L140.837 236.102C138.768 238.147 135.127 238.498 132.704 236.887L121.945 229.728Z" fill="#9eacfd" fill-rule="nonzero" opacity="1" stroke="none"/>
</g>
<path d="M94.0845 107.04C58.2348 107.04 29.1604 136.115 29.1604 171.964C29.1604 207.814 58.2348 236.865 94.0845 236.865C129.934 236.865 158.985 207.814 158.985 171.964C158.985 136.115 129.934 107.04 94.0845 107.04ZM93.3039 150.332C105.548 150.332 115.474 160.259 115.474 172.503C115.474 184.747 105.548 194.673 93.3039 194.673C81.0599 194.673 71.1334 184.747 71.1334 172.503C71.1334 160.259 81.0599 150.332 93.3039 150.332Z" fill="#9eacfd" fill-rule="nonzero" opacity="1" stroke="none"/>
<g opacity="1">
<path d="M229.368 63.0069L187.939 63.127L190.839 50.4813C191.508 47.5611 194.48 45.1938 197.476 45.1938L220.412 45.1938C223.321 45.1938 226.158 47.5032 226.748 50.352L229.368 63.0069Z" fill="#506efd" fill-rule="nonzero" opacity="1" stroke="none"/>
<path d="M148.16 101.135L148.28 142.565L135.634 139.665C132.714 138.995 130.347 136.024 130.347 133.028L130.347 110.092C130.347 107.182 132.656 104.346 135.505 103.756L148.16 101.135Z" fill="#506efd" fill-rule="nonzero" opacity="1" stroke="none"/>
<path d="M180.581 65.1526L151.36 94.5218L144.473 83.5269C142.882 80.9879 143.311 77.2129 145.43 75.0952L161.654 58.8831C163.712 56.8267 167.351 56.4552 169.782 58.0533L180.581 65.1526Z" fill="#506efd" fill-rule="nonzero" opacity="1" stroke="none"/>
<path d="M187.89 183.173L229.32 183.053L226.42 195.699C225.751 198.619 222.779 200.986 219.783 200.986L196.847 200.986C193.938 200.986 191.101 198.677 190.511 195.828L187.89 183.173Z" fill="#506efd" fill-rule="nonzero" opacity="1" stroke="none"/>
<path d="M269.985 142.554L269.865 101.124L282.511 104.024C285.431 104.694 287.798 107.665 287.798 110.661L287.798 133.597C287.798 136.507 285.489 139.343 282.64 139.933L269.985 142.554Z" fill="#506efd" fill-rule="nonzero" opacity="1" stroke="none"/>
<path d="M151.694 151.61L181.123 180.771L170.143 187.681C167.607 189.277 163.831 188.856 161.709 186.741L145.463 170.55C143.403 168.496 143.024 164.858 144.617 162.424L151.694 151.61Z" fill="#506efd" fill-rule="nonzero" opacity="1" stroke="none"/>
<path d="M265.992 93.0193L236.065 64.3697L246.925 57.2717C249.433 55.6326 253.215 55.9884 255.373 58.0665L271.895 73.9751C273.991 75.993 274.433 79.6242 272.882 82.0855L265.992 93.0193Z" fill="#506efd" fill-rule="nonzero" opacity="1" stroke="none"/>
<path d="M237.025 180.855L266.408 151.648L273.234 162.68C274.811 165.228 274.361 169.001 272.23 171.107L255.917 187.229C253.848 189.274 250.207 189.625 247.785 188.014L237.025 180.855Z" fill="#506efd" fill-rule="nonzero" opacity="1" stroke="none"/>
</g>
<path d="M209.353 57.7873C173.503 57.7873 144.428 86.8617 144.428 122.711C144.428 158.561 173.503 187.612 209.353 187.612C245.202 187.612 274.253 158.561 274.253 122.711C274.254 86.8617 245.202 57.7873 209.353 57.7873ZM209.26 86.7068C229.361 86.7068 245.658 103.004 245.658 123.105C245.658 143.206 229.361 159.503 209.26 159.503C189.159 159.503 172.862 143.206 172.862 123.105C172.862 103.004 189.159 86.7068 209.26 86.7068Z" fill="#506efd" fill-rule="nonzero" opacity="1" stroke="none"/>
</g>
</svg>
