<?xml version="1.0" encoding="UTF-8"?>
<svg data-bbox="24.485 4.042 248.19 291.666" xmlns="http://www.w3.org/2000/svg" viewBox="0 0 300 300" stroke-miterlimit="10" clip-rule="evenodd" stroke-linecap="round" stroke-linejoin="round" data-type="ugc">
    <g>
        <path fill="#9eacfd" d="m172.214 93.022-60.858.176 4.259-18.575c.984-4.29 5.349-7.768 9.75-7.768h33.692c4.274 0 8.441 3.393 9.307 7.578l3.85 18.589Z"/>
        <path fill="#9eacfd" d="m52.922 149.03.177 60.859-18.576-4.26c-4.29-.983-7.767-5.349-7.767-9.75v-33.692c0-4.273 3.392-8.44 7.577-9.307l18.59-3.85Z"/>
        <path fill="#9eacfd" d="m100.548 96.174-42.925 43.142-10.117-16.151c-2.337-3.73-1.707-9.275 1.406-12.386l23.833-23.815c3.023-3.02 8.369-3.566 11.94-1.218l15.863 10.428Z"/>
        <path fill="#9eacfd" d="m111.285 269.541 60.858-.176-4.259 18.576c-.984 4.289-5.349 7.767-9.75 7.767h-33.692c-4.274 0-8.441-3.393-9.308-7.577l-3.849-18.59Z"/>
        <path fill="#9eacfd" d="m231.878 209.873-.176-60.858 18.576 4.26c4.29.983 7.767 5.348 7.767 9.749v33.692c0 4.274-3.392 8.441-7.577 9.308l-18.59 3.849Z"/>
        <path fill="#9eacfd" d="m58.114 223.177 43.23 42.836-16.13 10.15c-3.725 2.344-9.272 1.726-12.389-1.381l-23.864-23.784c-3.027-3.017-3.583-8.361-1.243-11.937l10.396-15.884Z"/>
        <path fill="#9eacfd" d="m226.013 137.109-43.962-42.085 15.953-10.427c3.684-2.408 9.24-1.885 12.41 1.168l24.27 23.369c3.079 2.964 3.728 8.298 1.449 11.914l-10.12 16.061Z"/>
        <path fill="#9eacfd" d="m183.461 266.136 43.162-42.905 10.028 16.207c2.316 3.742 1.656 9.284-1.475 12.378l-23.963 23.683c-3.04 3.004-8.388 3.52-11.946 1.153l-15.806-10.516Z"/>
        <path fill="#208eed" d="M225.995 84.32h.047v.235h-.047v-.235Z"/>
        <path fill="#041358" d="M24.486 13.245a9.107 9.107 0 1 1 18.213 0 9.107 9.107 0 0 1-18.213 0Z"/>
        <path fill="#000000" d="M132.312 39.236a.085.085 0 1 1 .17 0 .085.085 0 1 1-.17 0Z"/>
        <path stroke-width="8" stroke-linejoin="miter" stroke="#9eacfd" fill="none" d="M128.653 236.063s2.262-3.034 5.735-16.596c3.498-13.662 3.423-19.682 3.423-19.682"/>
        <path fill="#9eacfd" d="M142.531 85.906c-52.662 0-95.375 42.713-95.375 95.375s42.714 95.344 95.375 95.344c52.662 0 95.344-42.682 95.344-95.344 0-52.662-42.682-95.375-95.344-95.375Zm-3.574 24.5s19.272 16.77 31.437 34.562c11.261 16.471 16.531 34.185 16.531 46.094 0 24.774-16.08 42.331-39.381 44.139-.182.014-6.265 13.382-12.335 21.298-6.041 7.879-17.004 5.943-13.407-2.362 1.114-2.572 4.428-5.709 7.476-10.336 3.051-4.633 4.703-9.967 4.703-9.967-23.877-1.044-37.4-18.576-37.4-42.678 0-13.707 7.911-26.887 19.938-45.344 0 0 14.067-19.711 19.375-28.094 2.526-3.988 3.063-7.312 3.063-7.312Z"/>
        <path fill="#506efd" d="M258.564 48.217 227.11 27.138l12.146-18.125c2.946-4.396 8.899-5.572 13.296-2.626l16.269 10.903a8.697 8.697 0 0 1 2.383 12.065l-12.64 18.862Z"/>
        <path fill="#506efd" d="m240.902 73.864-31.454-21.078 14.826-22.124 31.454 21.078-14.826 22.124Z"/>
        <path fill="#506efd" d="m186.405 154.814-31.454-21.078 51.949-77.52 31.454 21.077-51.949 77.521Z"/>
        <path fill="#506efd" d="m151.823 138.391 31.505 21.05-45.34 34.261 13.835-55.311Z"/>
        <path fill="#506efd" d="m211.411 29.821 10.885 7.295-7.614 11.362-10.885-7.294 7.614-11.363Z"/>
        <path fill="#506efd" d="m204.075 40.77 4.893 3.28-27.817 41.51-4.893-3.28 27.817-41.51Z"/>
    </g>
</svg>
