<?xml version="1.0" encoding="UTF-8" standalone="no"?>
<!DOCTYPE svg PUBLIC "-//W3C//DTD SVG 1.1//EN" "http://www.w3.org/Graphics/SVG/1.1/DTD/svg11.dtd">
<!-- Created with Vectornator (http://vectornator.io/) -->
<svg height="100%" stroke-miterlimit="10" style="fill-rule:nonzero;clip-rule:evenodd;stroke-linecap:round;stroke-linejoin:round;" version="1.1" viewBox="0 0 300 300" width="100%" xml:space="preserve" xmlns="http://www.w3.org/2000/svg" xmlns:vectornator="http://vectornator.io" xmlns:xlink="http://www.w3.org/1999/xlink">
<defs/>
<g id="Layer-2" vectornator:layerName="Layer 2">
<path d="M131.382 30.0673C131.382 30.0202 131.42 29.982 131.467 29.982C131.514 29.982 131.552 30.0202 131.552 30.0673C131.552 30.1144 131.514 30.1527 131.467 30.1527C131.42 30.1527 131.382 30.1144 131.382 30.0673Z" fill="#000000" fill-rule="nonzero" opacity="1" stroke="none"/>
<path d="M186.227 90.3055L186.324 90.3055L186.324 91.1725L186.227 91.1725L186.227 90.3055Z" fill="#ffffff" fill-rule="nonzero" opacity="0.334234" stroke="none"/>
<path d="M31.0221 90.2137C26.5698 90.2137 22.9596 94.0898 22.9596 98.87L22.9596 260.057C22.9596 264.838 26.5698 268.714 31.0221 268.714L145.803 268.714C150.256 268.714 153.866 264.838 153.866 260.057L153.866 98.87C153.866 94.0898 150.256 90.2137 145.803 90.2137L31.0221 90.2137ZM43.5533 124.057L55.5846 124.057C57.1423 124.057 58.3971 125.401 58.3971 127.057L58.3971 137.245C58.3971 138.902 57.1423 140.245 55.5846 140.245L43.5533 140.245C41.9956 140.245 40.7408 138.902 40.7408 137.245L40.7408 127.057C40.7408 125.401 41.9956 124.057 43.5533 124.057ZM68.3658 129.214L131.928 129.214C132.98 129.214 133.835 130.069 133.835 131.12L133.835 133.182C133.835 134.234 132.98 135.089 131.928 135.089L68.3658 135.089C67.3145 135.089 66.4596 134.234 66.4596 133.182L66.4596 131.12C66.4596 130.069 67.3145 129.214 68.3658 129.214ZM43.7096 167.089L55.7408 167.089C57.2985 167.089 58.5533 168.432 58.5533 170.089L58.5533 180.307C58.5533 181.964 57.2985 183.307 55.7408 183.307L43.7096 183.307C42.1519 183.307 40.8658 181.964 40.8658 180.307L40.8658 170.089C40.8658 168.432 42.1519 167.089 43.7096 167.089ZM68.5533 172.682L132.085 172.682C133.136 172.682 133.991 173.537 133.991 174.589L133.991 176.651C133.991 177.703 133.136 178.557 132.085 178.557L68.5533 178.557C67.502 178.557 66.6471 177.703 66.6471 176.651L66.6471 174.589C66.6471 173.537 67.502 172.682 68.5533 172.682ZM43.7096 212.401L55.7408 212.401C57.2985 212.401 58.5533 213.744 58.5533 215.401L58.5533 225.589C58.5533 227.246 57.2985 228.589 55.7408 228.589L43.7096 228.589C42.1519 228.589 40.8971 227.246 40.8971 225.589L40.8971 215.401C40.8971 213.744 42.1519 212.401 43.7096 212.401ZM68.6158 218.276L132.178 218.276C133.23 218.276 134.085 219.131 134.085 220.182L134.085 222.245C134.085 223.296 133.23 224.151 132.178 224.151L68.6158 224.151C67.5645 224.151 66.7096 223.296 66.7096 222.245L66.7096 220.182C66.7096 219.131 67.5645 218.276 68.6158 218.276Z" fill="#9eacfd" fill-rule="nonzero" opacity="1" stroke="none"/>
<g opacity="1">
<path d="M172.205 82.4856L172.248 82.4856L172.248 82.7L172.205 82.7L172.205 82.4856Z" fill="#208eed" fill-rule="nonzero" opacity="1" stroke="none"/>
<g opacity="1">
<path d="M225.231 39.9296L181.15 40.0573L184.236 26.6026C184.948 23.4955 188.11 20.9767 191.298 20.9767L215.701 20.9767C218.796 20.9767 221.815 23.4339 222.442 26.465L225.231 39.9296Z" fill="#506efd" fill-rule="nonzero" opacity="1" stroke="none"/>
<path d="M138.827 80.497L138.954 124.577L125.5 121.492C122.393 120.78 119.874 117.618 119.874 114.43L119.874 90.0268C119.874 86.9313 122.331 83.9131 125.362 83.2854L138.827 80.497Z" fill="#506efd" fill-rule="nonzero" opacity="1" stroke="none"/>
<path d="M173.322 42.2125L142.231 73.4607L134.903 61.7625C133.211 59.061 133.667 55.0444 135.922 52.7912L153.184 35.5418C155.374 33.3539 159.246 32.9586 161.832 34.659L173.322 42.2125Z" fill="#506efd" fill-rule="nonzero" opacity="1" stroke="none"/>
<path d="M181.099 167.784L225.179 167.656L222.094 181.111C221.382 184.218 218.22 186.737 215.032 186.737L190.629 186.737C187.533 186.737 184.515 184.28 183.887 181.249L181.099 167.784Z" fill="#506efd" fill-rule="nonzero" opacity="1" stroke="none"/>
<path d="M268.446 124.566L268.318 80.4858L281.773 83.571C284.88 84.2835 287.399 87.4452 287.399 90.633L287.399 115.036C287.399 118.132 284.942 121.15 281.911 121.778L268.446 124.566Z" fill="#506efd" fill-rule="nonzero" opacity="1" stroke="none"/>
<path d="M142.587 134.202L173.899 165.228L162.216 172.58C159.518 174.278 155.5 173.83 153.242 171.58L135.957 154.353C133.765 152.168 133.362 148.297 135.057 145.707L142.587 134.202Z" fill="#506efd" fill-rule="nonzero" opacity="1" stroke="none"/>
<path d="M264.197 71.8621L232.355 41.3795L243.91 33.8274C246.579 32.0834 250.603 32.462 252.9 34.673L270.479 51.5995C272.708 53.7465 273.178 57.61 271.528 60.2288L264.197 71.8621Z" fill="#506efd" fill-rule="nonzero" opacity="1" stroke="none"/>
<path d="M233.377 165.318L264.64 134.241L271.903 145.98C273.58 148.691 273.102 152.705 270.835 154.945L253.478 172.099C251.276 174.275 247.402 174.649 244.825 172.934L233.377 165.318Z" fill="#506efd" fill-rule="nonzero" opacity="1" stroke="none"/>
</g>
<path d="M203.934 34.376C165.791 34.376 134.856 65.3105 134.856 103.454C134.856 141.597 165.791 172.507 203.934 172.507C242.078 172.507 272.987 141.597 272.987 103.454C272.987 65.3105 242.078 34.376 203.934 34.376ZM203.836 65.1458C225.223 65.1458 242.563 82.4853 242.563 103.873C242.563 125.26 225.223 142.6 203.836 142.6C182.448 142.6 165.109 125.26 165.109 103.873C165.109 82.4853 182.448 65.1458 203.836 65.1458Z" fill="#506efd" fill-rule="nonzero" opacity="1" stroke="none"/>
</g>
<path d="M89.045 67.9232C83.7965 67.9232 79.545 72.1746 79.545 77.4232C79.545 77.4783 79.5753 77.5245 79.5763 77.5794L68.045 77.5794C67.2513 77.5794 66.6075 78.2232 66.6075 79.0169L66.6075 83.6107C66.6075 84.0586 66.2429 84.4232 65.795 84.4232L52.5763 84.4232C51.2505 84.4232 50.17 85.5036 50.17 86.8294L50.17 95.4232L127.639 95.4232L127.639 86.7357C127.639 85.4599 126.602 84.4232 125.326 84.4232L113.233 84.4232C112.785 84.4232 112.42 84.0586 112.42 83.6107L112.42 79.0169C112.42 78.2232 111.776 77.5794 110.983 77.5794L98.5138 77.5794C98.5147 77.5245 98.545 77.4783 98.545 77.4232C98.545 72.1746 94.2936 67.9232 89.045 67.9232ZM88.9513 71.7982C90.3529 71.7982 91.4825 72.9278 91.4825 74.3294C91.4825 75.7311 90.3529 76.8607 88.9513 76.8607C87.5496 76.8607 86.42 75.7311 86.42 74.3294C86.42 72.9278 87.5497 71.7982 88.9513 71.7982Z" fill="#506efd" fill-rule="nonzero" opacity="1" stroke="none"/>
<path d="M40.1967 130.239L46.1669 136.816C46.6553 137.333 47.4557 137.342 47.9547 136.834L65.7532 118.744" fill="none" opacity="1" stroke="#506efd" stroke-linecap="butt" stroke-linejoin="miter" stroke-width="4"/>
<path d="M40.4063 173.512L46.3766 180.089C46.8649 180.607 47.6654 180.615 48.1643 180.108L65.9629 162.017" fill="none" opacity="1" stroke="#506efd" stroke-linecap="butt" stroke-linejoin="miter" stroke-width="4"/>
<path d="M41.165 218.441L47.1353 225.018C47.6237 225.536 48.4241 225.544 48.923 225.037L66.7216 206.946" fill="none" opacity="1" stroke="#506efd" stroke-linecap="butt" stroke-linejoin="miter" stroke-width="4"/>
</g>
</svg>
