<?xml version="1.0" encoding="UTF-8"?>
<svg xmlns="http://www.w3.org/2000/svg" viewBox="0 0 238.11 57.09">
  <defs>
    <style>
      .cls-1 {
        fill: rgb(255, 255, 255);
      }

      .cls-2 {
        fill: none;
        stroke: rgb(255, 255, 255);
        stroke-miterlimit: 10;
        stroke-width: 9px;
      }
    </style>
  </defs>
  <g id="Layer_1" data-name="Layer 1">
    <path class="cls-2" d="M238.11,4.65h-21.65c-12.88,0-23.33,10.44-23.33,23.33h0c0,12.88,10.44,23.33,23.33,23.33h21.65"/>
    <path class="cls-2" d="M181.48,4.65h-21.65c-12.88,0-23.33,10.44-23.33,23.33h0c0,12.88,10.44,23.33,23.33,23.33h21.65"/>
    <rect class="cls-1" x="150.75" y="23.47" width="30.73" height="9.08"/>
    <path class="cls-2" d="M84.08,30.19h25.02c6.97,0,12.62-5.65,12.62-12.62h0c0-7.22-5.85-13.07-13.07-13.07h-21.01c-8.53,0-15.44,6.91-15.44,15.44V55.88"/>
    <path class="cls-2" d="M58.54,4.5H15.1c-5.85,0-10.6,4.74-10.6,10.6h0c0,6,4.86,12.13,10.86,12.13h28.91c7.83,0,14.18,5.07,14.18,12.9h0c0,6.88-5.58,12.46-12.46,12.46H2.43"/>
  </g>

</svg>