<?xml version="1.0" encoding="UTF-8" standalone="no"?>
<svg
   xmlns="http://www.w3.org/2000/svg"
   id="svg4212"
   viewBox="0 0 204.41056 206.98298"
   height="206.98297"
   width="204.41055"
   style="background-color: white">
  <defs
     id="defs4214" />
  <metadata
     id="metadata4217">

  </metadata>
  <g
     id="layer1">
    <path
       id="path4768"
       d="m 112.83131,206.57363 c -9.21537,-2.88002 -15.157541,-12.55254 -13.351381,-21.73305 1.278371,-6.49783 5.115641,-11.42393 11.069011,-14.20985 2.98113,-1.39504 3.92078,-1.58699 7.71354,-1.57572 5.55425,0.0165 9.11151,1.34762 12.93154,4.83891 10.96178,10.01845 7.11586,28.09765 -6.90544,32.46157 -3.52451,1.09694 -8.35125,1.18885 -11.45727,0.21814 z M 54.737959,196.21185 c -5.95058,-1.96387 -11.20989,-7.51969 -12.59873,-13.30902 -0.981,-4.08926 -0.42964,-9.80232 1.28152,-13.27885 4.67594,-9.50004 15.9276,-13.49296 25.45649,-9.03385 7.77837,3.63994 12.29625,12.18917 10.80691,20.45008 -1.15713,6.41829 -5.28693,11.7954 -11.14582,14.51218 -3.75286,1.74021 -9.66905,2.02292 -13.80037,0.65946 z m 34.46027,-15.48419 c -3.8392,-1.06293 -6.0148,-3.14863 -7.25822,-6.95834 -2.07099,-6.34525 -4.42314,-9.63477 -9.05188,-12.65919 -5.5568,-3.63082 -12.06554,-4.32885 -18.79037,-2.01516 -3.86252,1.3289 -5.36467,1.28906 -8.34528,-0.22133 -3.8665,-1.9593 -6.40203,-5.46104 -6.97358,-9.63099 -0.25993,-1.89639 -0.061,-2.74539 1.22077,-5.21008 4.4069,-8.47391 4.11221,-16.63818 -0.85072,-23.56883 -2.33118,-3.25546 -4.17636,-4.76399 -8.49067,-6.94161 -1.71599,-0.86613 -3.59911,-2.18389 -4.18471,-2.92836 -2.53278,-3.2199 -2.69211,-9.62943 -0.33919,-13.64439 1.49546,-2.5518 2.11314,-2.96756 6.54881,-4.40794 11.94096,-3.87755 17.76618,-15.47283 13.82132,-27.51178 -1.13768,-3.47201 -1.23704,-4.27582 -0.75144,-6.07921 1.35904,-5.04706 6.81913,-9.45643 11.70983,-9.45643 0.80261,0 2.99495,0.7676 4.87188,1.70578 7.11718,3.55753 13.32816,3.75594 19.64011,0.62743 4.46495,-2.21305 7.24356,-5.03175 10.01829,-10.16285 2.49254,-4.60925 4.31875,-5.90412 8.857671,-6.28052 6.08638,-0.50473 10.51014,2.33894 12.07285,7.76065 3.51504,12.19517 15.10696,18.15387 27.62392,14.19976 2.66278,-0.84117 4.55254,-1.16625 5.48124,-0.94288 2.51353,0.60453 5.02493,2.12056 6.73022,4.06278 3.65167,4.15903 3.98253,7.78724 1.23728,13.56796 -5.31594,11.19385 -1.37892,23.02002 9.49233,28.5134 4.16492,2.1046 5.79066,3.98408 6.53102,7.55039 0.69404,3.34313 0.30683,5.84608 -1.39794,9.03652 -1.46675,2.74498 -2.5876,3.61404 -5.7443,4.45387 -5.93322,1.57851 -11.55558,6.1865 -13.99017,11.4661 -2.47061,5.35772 -2.67893,10.61895 -0.64913,16.3941 0.54127,1.53999 0.98412,3.4432 0.98412,4.22935 0,3.49745 -3.49015,8.2753 -7.35797,10.0727 -3.19098,1.48288 -6.0448,1.24971 -10.14893,-0.8292 -11.16209,-5.65406 -23.4999,-1.35767 -29.19804,10.16761 -1.50222,3.03846 -2.08639,3.71279 -4.039691,4.66318 -3.00275,1.461 -6.28447,1.80671 -9.27943,0.97751 z m 6.18403,-0.85202 c 3.2965,-0.75991 4.770121,-2.06687 6.660521,-5.90725 5.54335,-11.26136 18.22392,-15.56355 29.74564,-10.09191 2.50261,1.18849 4.57027,1.82108 5.94214,1.81798 2.77909,-0.006 6.7984,-2.32457 8.64164,-4.98437 1.91294,-2.76038 2.16577,-5.22131 0.92112,-8.96565 -2.09692,-6.30829 -1.89911,-11.29768 0.67043,-16.9103 2.685,-5.86483 7.80823,-10.25171 14.00207,-11.98962 3.90677,-1.09618 5.72706,-2.87899 6.83667,-6.6959 0.93093,-3.20228 0.62808,-6.07988 -0.93727,-8.90598 -0.77996,-1.40814 -1.84786,-2.26255 -4.27985,-3.42424 -3.5754,-1.70788 -7.73112,-5.29723 -9.66363,-8.34663 -4.29861,-6.78296 -4.33142,-16.60228 -0.0785,-23.48369 2.20382,-3.56585 0.88343,-8.56519 -3.18105,-12.04424 -3.21919,-2.75551 -5.35379,-3.15875 -9.21085,-1.73999 -2.50891,0.92286 -4.20891,1.15777 -8.46735,1.17003 -4.94575,0.0143 -5.57148,-0.0999 -8.71773,-1.59048 -6.03701,-2.86009 -10.04366,-7.42218 -12.13406,-13.8162 -0.60299,-1.84442 -1.58135,-3.8974 -2.17413,-4.56219 -2.79083,-3.12983 -8.886,-4.04856 -13.022111,-1.96284 -1.89584,0.95602 -2.55309,1.71366 -4.04023,4.65735 -6.0991,12.07277 -19.8437,16.43369 -31.24165,9.91245 -1.50921,-0.86349 -3.36811,-1.50306 -4.36858,-1.50306 -2.59472,0 -6.86911,2.34428 -8.5795,4.70539 -2.45485,3.38882 -2.66419,5.04877 -1.21518,9.63569 4.15876,13.16481 -2.27511,25.15237 -15.57467,29.01866 -3.20668,0.93221 -3.99487,1.63373 -5.45684,4.85678 -1.72551,3.80407 -1.21188,8.94295 1.15513,11.55714 0.57948,0.63998 2.45993,1.85595 4.17879,2.70214 5.60646,2.76005 10.08857,8.21357 11.62562,14.14524 1.46319,5.64661 0.7946,10.67789 -2.20695,16.60774 -1.90532,3.76416 -1.97138,5.15394 -0.40487,8.51789 2.29446,4.92715 7.02344,7.63964 11.15568,6.39878 6.57715,-1.97503 8.65066,-2.26232 12.4163,-1.72032 4.71567,0.67874 9.45427,2.98862 12.54437,6.11488 2.90026,2.9342 4.40157,5.45631 5.78374,9.71635 1.16163,3.58033 2.05416,4.81309 4.35178,6.01067 2.97658,1.55148 5.12958,1.83594 8.32334,1.0997 z m 1.57306,-63.65244 0,-7.35797 -7.61169,0 c -4.73617,0 -7.6117,-0.1917 -7.6117,-0.50744 0,-0.31575 2.87553,-0.50745 7.6117,-0.50745 l 7.61169,0 0,-1.77606 0,-1.77606 -4.31329,0 c -2.53723,0 -4.31329,-0.20895 -4.31329,-0.50745 0,-0.2985 1.77606,-0.50745 4.31329,-0.50745 l 4.31329,0 0,-5.32818 c 0,-3.21383 0.20137,-5.32819 0.50745,-5.32819 0.30607,0 0.50744,2.11436 0.50744,5.32819 l 0,5.32818 2.537241,0 2.53723,0 0,-7.35797 c 0,-4.56701 0.19248,-7.35797 0.50744,-7.35797 0.31497,0 0.50745,2.79096 0.50745,7.35797 l 0,7.35797 7.35797,0 c 4.56702,0 7.35797,0.19248 7.35797,0.50745 0,0.31497 -2.79095,0.50745 -7.35797,0.50745 l -7.35797,0 0,1.77606 0,1.77606 4.31329,0 c 2.53724,0 4.3133,0.20895 4.3133,0.50745 0,0.2985 -1.77606,0.50744 -4.3133,0.50744 l -4.31329,0 0,5.07447 c 0,3.04467 -0.20298,5.07446 -0.50745,5.07446 -0.30446,0 -0.50744,-2.02979 -0.50744,-5.07446 l 0,-5.07447 -2.53723,0 -2.537241,0 0,7.35797 c 0,4.56702 -0.19247,7.35797 -0.50744,7.35797 -0.31497,0 -0.50745,-2.79095 -0.50745,-7.35797 z m 6.089361,-10.14892 0,-1.77606 -2.53723,0 -2.537241,0 0,1.77606 0,1.77606 2.537241,0 2.53723,0 0,-1.77606 z m 59.50714,70.83506 c -1.46027,-0.53855 -3.32421,-1.45568 -4.14208,-2.03806 -2.73493,-1.94743 -6.07691,-6.14748 -7.21682,-9.06975 -1.56834,-4.02058 -1.5617,-9.90147 0.0157,-13.94777 1.46758,-3.76448 5.80425,-8.51061 9.34105,-10.22302 9.58667,-4.64155 21.17615,-0.70759 25.84305,8.77221 1.52801,3.10385 1.64916,3.7235 1.64916,8.43507 0,4.43016 -0.17059,5.44461 -1.32447,7.87609 -1.9633,4.13712 -5.03912,7.30817 -8.96467,9.24224 -2.95858,1.45767 -3.96241,1.68451 -7.96556,1.80002 -3.51741,0.10149 -5.19653,-0.0951 -7.23541,-0.84703 z M 18.313449,151.72125 c -3.58661,-1.00139 -6.32669,-2.63085 -9.0425504,-5.37735 -9.17980003,-9.2834 -6.14073,-25.15754 5.8966904,-30.80047 2.51659,-1.17973 3.5199,-1.35001 7.9543,-1.35001 4.41866,0 5.43515,0.17117 7.86541,1.32447 4.14211,1.96567 7.30843,5.03876 9.24225,8.97012 1.56533,3.18222 1.66775,3.71865 1.66619,8.72673 -0.002,4.89868 -0.12426,5.57852 -1.49715,8.29338 -1.94859,3.85331 -6.45233,8.0397 -10.1291,9.41535 -3.86405,1.44573 -8.5221,1.75654 -11.95604,0.79778 z M 184.6146,122.52281 c -5.26052,-1.23981 -10.46421,-5.61895 -12.91269,-10.86662 -1.24248,-2.66293 -1.4206,-3.64911 -1.4206,-7.86542 0,-4.21824 0.17893,-5.2079 1.43166,-7.91849 3.91376,-8.46837 13.75131,-13.12628 22.44482,-10.62723 5.92276,1.70258 9.88585,5.13717 12.58875,10.90999 1.35325,2.89025 1.55561,3.88351 1.55561,7.63573 0,3.75222 -0.20236,4.74548 -1.55561,7.63573 -1.86969,3.99327 -3.95861,6.47225 -7.17423,8.51386 -4.3854,2.78432 -9.99317,3.7525 -14.95771,2.58245 z M 17.431399,92.93476 C 3.7787286,88.48219 -0.65195143,71.27248 9.2708986,61.23764 16.855619,53.56732 28.208179,53.21452 35.977649,60.40768 c 1.73096,1.60256 3.53609,3.91596 4.42094,5.66574 1.37289,2.71486 1.49561,3.3947 1.49715,8.29338 0.002,5.00808 -0.10086,5.54451 -1.66619,8.72673 -1.94222,3.94843 -5.12688,7.02999 -9.24225,8.94304 -3.38919,1.57548 -10.11311,2.021 -13.5559,0.89819 z M 165.96802,67.66067 c -4.1485,-0.62987 -7.67234,-2.57874 -10.83032,-5.98973 -3.69545,-3.99153 -5.07338,-7.50551 -5.07338,-12.93809 0,-3.00659 0.29682,-4.82095 1.14435,-6.99494 1.51116,-3.87626 5.79102,-8.49858 9.59457,-10.3623 2.59386,-1.27097 3.41356,-1.41213 8.21737,-1.41504 5.00965,-0.003 5.54351,0.0988 8.72673,1.66461 3.93136,1.93383 7.00445,5.10015 8.97012,9.24225 1.1533,2.43026 1.32447,3.44676 1.32447,7.86542 0,4.42238 -0.17183,5.44093 -1.33721,7.92631 -3.7482,7.99379 -11.93607,12.33773 -20.7367,11.00151 z M 55.738479,48.26857 c -7.8849,-2.27766 -13.53444,-9.18924 -13.99433,-17.1205 -0.28816,-4.9695 0.52462,-8.29572 2.94047,-12.03351 7.78761,-12.04893 26.14768,-11.32686 32.85586,1.29217 5.31447,9.99727 1.41227,21.86978 -8.75127,26.62587 -3.89092,1.82079 -9.26444,2.32968 -13.05073,1.23597 z M 114.38866,38.34099 C 104.6987,36.28116 97.712909,26.16141 99.393759,16.61909 101.88904,2.45317 117.53505,-4.32157 129.30936,3.66561 c 7.74959,5.25698 10.48215,15.6695 6.32651,24.10738 -3.88575,7.88986 -12.85634,12.35169 -21.24721,10.568 z"
       style="fill:#000000" />
  </g>
</svg>
