<?xml version="1.0" encoding="utf-8"?>
<!-- Generator: Adobe Illustrator 23.0.1, SVG Export Plug-In . SVG Version: 6.00 Build 0)  -->
<svg version="1.1" id="Layer_1" xmlns="http://www.w3.org/2000/svg" xmlns:xlink="http://www.w3.org/1999/xlink" x="0px" y="0px"
	 viewBox="0 0 96 96" style="enable-background:new 0 0 96 96;" xml:space="preserve">
<style type="text/css">
	.st0{clip-path:url(#SVGID_2_);fill:#5774EC;}
</style>
<g>
	<defs>
		<rect id="SVGID_1_" width="96" height="96"/>
	</defs>
	<clipPath id="SVGID_2_">
		<use xlink:href="#SVGID_1_"  style="overflow:visible;"/>
	</clipPath>
	<path class="st0" d="M58.41,67.22c3.21,2.52,5.77,4.96,7.69,7.13c1.89,2.13,3.15,4.03,3.75,5.34c0.23,0.52,0.25,0.79,0.28,1.03
		C69.6,80.87,68.71,81,67.59,81c-2.36,0-5.5-0.5-9-1.5c0.91-1.82,1.41-3.84,1.41-6C60,71.23,59.41,69.11,58.41,67.22z M46.5,66
		c4.17,0,7.5,3.32,7.5,7.5S50.67,81,46.5,81c-4.18,0-7.5-3.33-7.5-7.5S42.32,66,46.5,66z M20.63,50.63c6.01,0,16.7,3.48,26.81,9.28
		c0.13,0.07,0.25,0.12,0.38,0.19C47.38,60.05,46.95,60,46.5,60c-5.33,0-9.9,3.18-12.09,7.69c-5.71-3.95-10.09-7.97-12.84-11.25
		c-1.63-1.95-2.68-3.61-3.19-4.78c-0.19-0.45-0.25-0.66-0.28-0.75C18.62,50.75,19.51,50.63,20.63,50.63z M60.56,22.69
		c2.4,0,5.03,0.82,7.97,2.44c8.81,4.84,7.5,10.92,2.34,23.63c-2.39,5.91-4.85,11.98-3.84,17.44c-4-3.53-9.13-7.38-16.03-11.34
		c-7.69-4.42-14.41-7.03-20.06-8.72c2.53-0.46,4.98-1.21,7.03-2.72c2.32-1.71,4.22-4.49,6.47-7.69
		C48.53,29.91,53.65,22.69,60.56,22.69z M73.5,15c0.87,0,1.5,0.63,1.5,1.5S74.37,18,73.5,18S72,17.37,72,16.5S72.63,15,73.5,15z
		 M73.5,9c-4.1,0-7.5,3.4-7.5,7.5c0,0.39,0.04,0.76,0.09,1.13c-1.97-0.6-3.8-0.94-5.53-0.94c-14.24,0-20.96,18.04-26.16,21.84
		c-5.32,3.91-19.73,0-21.75,9.19c-1.24,2.18-0.67,4.3,0.19,6.28c0.86,1.98,2.24,4.11,4.13,6.38c3.55,4.24,9.01,8.98,16.13,13.59
		C33.35,81.16,39.23,87,46.5,87c2.95,0,5.65-1,7.88-2.63C59.23,85.99,63.7,87,67.59,87c1.61,0,3.08-0.16,4.41-0.56
		s2.66-1.05,3.56-2.63c3.07-3.64,3.94-7.24-1.78-16.59c-5.71-9.33,16.29-30.48,2.63-43.78C79.09,22.29,81,19.58,81,16.5
		C81,12.4,77.6,9,73.5,9z"/>
</g>
</svg>
