<?xml version="1.0" encoding="UTF-8" standalone="no"?>
<!DOCTYPE svg PUBLIC "-//W3C//DTD SVG 1.1//EN" "http://www.w3.org/Graphics/SVG/1.1/DTD/svg11.dtd">
<!-- Created with Vectornator (http://vectornator.io/) -->
<svg height="100%" stroke-miterlimit="10" style="fill-rule:nonzero;clip-rule:evenodd;stroke-linecap:round;stroke-linejoin:round;" version="1.1" viewBox="0 0 300 300" width="100%" xml:space="preserve" xmlns="http://www.w3.org/2000/svg" xmlns:vectornator="http://vectornator.io" xmlns:xlink="http://www.w3.org/1999/xlink">
<defs/>
<g id="Layer-2" vectornator:layerName="Layer 2">
<g opacity="1">
<path d="M172.214 93.022L111.356 93.1984L115.615 74.6225C116.599 70.3328 120.964 66.8553 125.365 66.8553L159.057 66.8553C163.331 66.8553 167.498 70.2478 168.364 74.4326L172.214 93.022Z" fill="#9eacfd" fill-rule="nonzero" opacity="1" stroke="none"/>
<path d="M52.9225 149.03L53.0989 209.889L34.523 205.629C30.2333 204.646 26.7558 200.28 26.7558 195.879L26.7558 162.187C26.7558 157.914 30.1482 153.747 34.333 152.88L52.9225 149.03Z" fill="#9eacfd" fill-rule="nonzero" opacity="1" stroke="none"/>
<path d="M100.548 96.1739L57.6228 139.316L47.5057 123.165C45.1694 119.435 45.7991 113.89 48.9123 110.779L72.745 86.9643C75.768 83.9435 81.1136 83.3978 84.6846 85.7455L100.548 96.1739Z" fill="#9eacfd" fill-rule="nonzero" opacity="1" stroke="none"/>
<path d="M111.285 269.541L172.143 269.365L167.884 287.941C166.9 292.23 162.535 295.708 158.134 295.708L124.442 295.708C120.168 295.708 116.001 292.315 115.134 288.131L111.285 269.541Z" fill="#9eacfd" fill-rule="nonzero" opacity="1" stroke="none"/>
<path d="M231.878 209.873L231.702 149.015L250.278 153.275C254.568 154.258 258.045 158.623 258.045 163.024L258.045 196.716C258.045 200.99 254.653 205.157 250.468 206.024L231.878 209.873Z" fill="#9eacfd" fill-rule="nonzero" opacity="1" stroke="none"/>
<path d="M58.1138 223.177L101.344 266.013L85.2138 276.163C81.4889 278.507 75.9423 277.889 72.825 274.782L48.9613 250.998C45.9343 247.981 45.3776 242.637 47.7179 239.061L58.1138 223.177Z" fill="#9eacfd" fill-rule="nonzero" opacity="1" stroke="none"/>
<path d="M226.013 137.109L182.051 95.0239L198.004 84.5972C201.688 82.1894 207.244 82.7121 210.414 85.7647L234.684 109.134C237.763 112.098 238.412 117.432 236.133 121.048L226.013 137.109Z" fill="#9eacfd" fill-rule="nonzero" opacity="1" stroke="none"/>
<path d="M183.461 266.136L226.623 223.231L236.651 239.438C238.967 243.18 238.307 248.722 235.176 251.816L211.213 275.499C208.173 278.503 202.825 279.019 199.267 276.652L183.461 266.136Z" fill="#9eacfd" fill-rule="nonzero" opacity="1" stroke="none"/>
</g>
<path d="M225.995 84.3197L226.042 84.3197L226.042 84.5552L225.995 84.5552L225.995 84.3197Z" fill="#208eed" fill-rule="nonzero" opacity="1" stroke="none"/>
<path d="M132.312 39.2358C132.312 39.1887 132.35 39.1505 132.397 39.1505C132.444 39.1505 132.482 39.1887 132.482 39.2358C132.482 39.283 132.444 39.3212 132.397 39.3212C132.35 39.3212 132.312 39.283 132.312 39.2358Z" fill="#000000" fill-rule="nonzero" opacity="1" stroke="none"/>
</g>
<g id="Layer-4" vectornator:layerName="Layer 4">
<path d="M128.653 236.063C128.653 236.063 130.915 233.029 134.388 219.467C137.886 205.805 137.811 199.785 137.811 199.785" fill="none" opacity="1" stroke="#9eacfd" stroke-linecap="round" stroke-linejoin="miter" stroke-width="8"/>
<path d="M142.531 85.9062C89.8695 85.9062 47.1562 128.619 47.1562 181.281C47.1562 233.943 89.8695 276.625 142.531 276.625C195.193 276.625 237.875 233.943 237.875 181.281C237.875 128.619 195.193 85.9063 142.531 85.9062ZM138.957 110.406C138.957 110.406 158.229 127.176 170.394 144.968C181.655 161.439 186.925 179.153 186.925 191.062C186.925 215.836 170.845 233.393 147.544 235.201C147.362 235.215 141.279 248.583 135.209 256.499C129.168 264.378 118.205 262.442 121.802 254.137C122.916 251.565 126.23 248.428 129.278 243.801C132.329 239.168 133.981 233.834 133.981 233.834C110.104 232.79 96.5817 215.258 96.5817 191.156C96.5817 177.449 104.492 164.269 116.519 145.812C116.519 145.812 130.586 126.101 135.894 117.718C138.42 113.73 138.957 110.406 138.957 110.406Z" fill="#9eacfd" fill-rule="nonzero" opacity="1" stroke="none"/>
</g>
<g id="Layer-3" vectornator:layerName="Layer 3">
<g opacity="1">
<g opacity="1">
<path d="M258.564 48.2166L227.11 27.1383L239.256 9.01327C242.202 4.61671 248.155 3.44101 252.552 6.38728L268.821 17.2898C272.811 19.9634 273.877 25.3653 271.204 29.3551L258.564 48.2166Z" fill="#506efd" fill-rule="nonzero" opacity="1" stroke="none"/>
<path d="M240.902 73.8641L209.448 52.7858L224.274 30.6617L255.728 51.74L240.902 73.8641Z" fill="#506efd" fill-rule="nonzero" opacity="1" stroke="none"/>
<path d="M186.405 154.814L154.951 133.736L206.9 56.2152L238.354 77.2935L186.405 154.814Z" fill="#506efd" fill-rule="nonzero" opacity="1" stroke="none"/>
<path d="M151.823 138.391L183.328 159.441L137.988 193.702L151.823 138.391Z" fill="#506efd" fill-rule="nonzero" opacity="1" stroke="none"/>
</g>
<path d="M211.411 29.8213L222.296 37.1156L214.682 48.4783L203.797 41.184L211.411 29.8213Z" fill="#506efd" fill-rule="nonzero" opacity="1" stroke="none"/>
<path d="M204.075 40.7707L208.968 44.0498L181.151 85.5592L176.258 82.28L204.075 40.7707Z" fill="#506efd" fill-rule="nonzero" opacity="1" stroke="none"/>
</g>
</g>
</svg>
