<?xml version="1.0" encoding="UTF-8" standalone="no"?>
<svg
   xmlns:dc="http://purl.org/dc/elements/1.1/"
   xmlns:cc="http://creativecommons.org/ns#"
   xmlns:rdf="http://www.w3.org/1999/02/22-rdf-syntax-ns#"
   xmlns:svg="http://www.w3.org/2000/svg"
   xmlns="http://www.w3.org/2000/svg"
   viewBox="0 0 132 174.02042"
   height="174.02042"
   width="132"
   id="svg10"
   version="1.1">
  <defs
     id="defs12" />
  <metadata
     id="metadata16">
    <rdf:RDF>
      <cc:Work
         rdf:about="">
        <dc:format>image/svg+xml</dc:format>
        <dc:type
           rdf:resource="http://purl.org/dc/dcmitype/StillImage" />
        <dc:title></dc:title>
      </cc:Work>
    </rdf:RDF>
  </metadata>
  <rect
     style="opacity:1;fill:#ffffff;stroke:none;stroke-width:6.4000001;stroke-miterlimit:4;stroke-dasharray:none;stroke-opacity:1;fill-opacity:1"
     id="rect4286"
     width="120.91525"
     height="138.97882"
     x="4.7923727"
     y="26.931433" />
  <path
     style="fill:#000000"
     d="M 66,0.02041201 C 57.083685,-0.42474149 53.104874,6.4691845 54,15.020412 l -9.953125,0 -9.953125,0 -3.212891,4 -3.214843,4 -11.759766,0 -11.7597656,0 L 0,28.291897 0,169.3915 l 4.3496094,4.62891 61.5097656,0 61.511715,0 4.62891,-4.34766 0,-141.380853 -4.14453,-5.271485 -11.75977,0 -11.75976,0 -6.42969,-8 -9.953125,0 -9.953125,0 C 78,6.9744706 74.916315,0.46556551 66,0.02041201 Z m 0.886719,5.05664059 c 1.012362,0.048661 2.010175,0.3114347 2.910156,0.8261719 2.305633,1.1552771 3.634004,3.7162531 3.714844,6.2363285 0.144911,2.71087 -1.114199,5.614325 -3.582031,6.919922 -2.24697,0.998325 -4.871033,0.99 -7.167969,0.160156 -2.788755,-0.736169 -4.660237,-3.664262 -4.421875,-6.49414 0.06596,-2.559802 1.601779,-4.9215704 3.728515,-6.2812509 1.400938,-0.9344385 3.13109,-1.44829 4.81836,-1.3671875 z M 10,33.020412 l 9,0 9,0 0,3.5 0,3.5 38,0 38,0 0,-3.5 0,-3.5 9,0 9,0 0,63 0,62.999998 -56,0 -56,0 0,-62.999998 z"
     id="path4151" />
  <path
     style="fill:#000000"
     d="m 23.000447,139.59758 0,-6 c 28.666668,0 57.333335,0 86.000003,0 l 0,6 0,6 c -28.666668,0 -57.333335,0 -86.000003,0 z"
     id="path4147" />
  <path
     style="fill:#000000"
     d="m 23.000447,114.02131 0,-6 c 28.666668,0 57.333335,0 86.000003,0 l 0,6 0,6 c -28.666668,0 -57.333335,0 -86.000003,0 z"
     id="path4145" />
  <path
     style="fill:#000000"
     d="m 23.000447,87.021316 0,-6 c 28.666668,0 57.333335,0 86.000003,0 l 0,6 0,6.000002 c -28.666668,0 -57.333335,0 -86.000003,0 z"
     id="path4143" />
  <path
     style="fill:#000000"
     d="m 23.000447,60.021316 0,-6 c 28.666668,0 57.333335,0 86.000003,0 l 0,6 0,6 c -28.666668,0 -57.333335,0 -86.000003,0 z"
     id="path4141" />
</svg>
