<?xml version="1.0" encoding="UTF-8" standalone="no"?>
<svg
   xmlns:dc="http://purl.org/dc/elements/1.1/"
   xmlns:cc="http://creativecommons.org/ns#"
   xmlns:rdf="http://www.w3.org/1999/02/22-rdf-syntax-ns#"
   xmlns:svg="http://www.w3.org/2000/svg"
   xmlns="http://www.w3.org/2000/svg"
   xmlns:sodipodi="http://sodipodi.sourceforge.net/DTD/sodipodi-0.dtd"
   xmlns:inkscape="http://www.inkscape.org/namespaces/inkscape"
   version="1.1"
   id="svg2"
   viewBox="0 0 176.03452 171.63898"
   height="48.440334mm"
   width="49.680855mm"
   inkscape:version="0.91 r13725"
   sodipodi:docname="speed.svg"
   inkscape:export-filename="/home/jono/Downloads/Makerstoolbox/converter/icons/volume.png"
   inkscape:export-xdpi="300"
   inkscape:export-ydpi="300">
  <sodipodi:namedview
     pagecolor="#ffffff"
     bordercolor="#666666"
     borderopacity="1"
     objecttolerance="10"
     gridtolerance="10"
     guidetolerance="10"
     inkscape:pageopacity="0"
     inkscape:pageshadow="2"
     inkscape:window-width="1366"
     inkscape:window-height="708"
     id="namedview24"
     showgrid="false"
     inkscape:zoom="2.5600001"
     inkscape:cx="115.30323"
     inkscape:cy="84.403757"
     inkscape:window-x="0"
     inkscape:window-y="31"
     inkscape:window-maximized="1"
     inkscape:current-layer="svg2" />
  <defs
     id="defs4">
    <inkscape:perspective
       sodipodi:type="inkscape:persp3d"
       inkscape:vp_x="-73.5235 : 9.0040326e-15 : 0"
       inkscape:vp_y="0 : 1000 : 0"
       inkscape:vp_z="220.7659 : 127.45926 : 0"
       inkscape:persp3d-origin="128.74515 : 39.758181 : 1"
       id="perspective4203" />
    <marker
       orient="auto"
       refY="0"
       refX="0"
       id="marker6268"
       style="overflow:visible">
      <path
         id="path6270"
         d="M 0,0 5,-5 -12.5,0 5,5 0,0 Z"
         style="fill:#000000;fill-opacity:1;fill-rule:evenodd;stroke:#000000;stroke-width:1pt;stroke-opacity:1"
         transform="matrix(0.8,0,0,0.8,10,0)" />
    </marker>
    <marker
       orient="auto"
       refY="0"
       refX="0"
       id="marker6228"
       style="overflow:visible">
      <path
         id="path6230"
         d="M 0,0 5,-5 -12.5,0 5,5 0,0 Z"
         style="fill:#000000;fill-opacity:1;fill-rule:evenodd;stroke:#000000;stroke-width:1pt;stroke-opacity:1"
         transform="matrix(0.8,0,0,0.8,10,0)" />
    </marker>
    <marker
       orient="auto"
       refY="0"
       refX="0"
       id="marker6194"
       style="overflow:visible">
      <path
         id="path6196"
         d="M 0,0 5,-5 -12.5,0 5,5 0,0 Z"
         style="fill:#000000;fill-opacity:1;fill-rule:evenodd;stroke:#000000;stroke-width:1pt;stroke-opacity:1"
         transform="matrix(0.8,0,0,0.8,10,0)" />
    </marker>
    <marker
       style="overflow:visible"
       id="marker6154"
       refX="0"
       refY="0"
       orient="auto">
      <path
         transform="matrix(0.8,0,0,0.8,10,0)"
         style="fill:#000000;fill-opacity:1;fill-rule:evenodd;stroke:#000000;stroke-width:1pt;stroke-opacity:1"
         d="M 0,0 5,-5 -12.5,0 5,5 0,0 Z"
         id="path6156" />
    </marker>
    <marker
       style="overflow:visible"
       id="Arrow1Sstart"
       refX="0"
       refY="0"
       orient="auto">
      <path
         transform="matrix(0.2,0,0,0.2,1.2,0)"
         style="fill:#000000;fill-opacity:1;fill-rule:evenodd;stroke:#000000;stroke-width:1pt;stroke-opacity:1"
         d="M 0,0 5,-5 -12.5,0 5,5 0,0 Z"
         id="path4346" />
    </marker>
  </defs>
  <metadata
     id="metadata7">
    <rdf:RDF>
      <cc:Work
         rdf:about="">
        <dc:format>image/svg+xml</dc:format>
        <dc:type
           rdf:resource="http://purl.org/dc/dcmitype/StillImage" />
        <dc:title></dc:title>
      </cc:Work>
    </rdf:RDF>
  </metadata>
  <path
     style="fill:#000000"
     d="m 48.667914,152.62889 c -4.931899,-1.13009 -6.692419,-3.24293 -5.851144,-7.02203 0.707877,-3.17992 3.137131,-5.39528 7.001855,-6.38538 1.579233,-0.40458 2.887254,-0.48424 5.713232,-0.34792 2.015803,0.0972 4.022829,0.26341 4.460065,0.36926 0.692296,0.1676 1.15723,-0.19962 3.599012,-2.8427 3.26773,-3.53708 3.430572,-3.20287 -2.112058,-4.33491 -10.797353,-2.20527 -16.877483,-6.22631 -18.983372,-12.55446 -0.786866,-2.36453 -0.693918,-2.3505 -3.417758,-0.51578 -6.084676,4.09853 -12.641313,5.62356 -18.722779,4.35481 -2.411827,-0.50317 -6.264881,-2.26784 -5.975191,-2.73658 0.09495,-0.1536 -0.05008,-0.19382 -0.322252,-0.0894 -0.333635,0.12803 -1.255011,-0.57252 -2.827917,-2.15007 -3.9687392,-3.98047 -6.1241718,-9.32765 -5.8734997,-14.57088 0.2156606,-4.51081 2.1551456,-6.952815 5.2453737,-6.604498 1.94718,0.219472 3.705951,1.510618 5.74608,4.218248 0.918038,1.21846 1.812384,2.26312 1.987438,2.32146 0.195373,0.0651 0.318213,-0.91998 0.318213,-2.55218 0,-4.57664 0.855902,-10.042936 2.42248,-15.471404 4.211238,-14.592773 15.144055,-26.637245 29.078031,-32.034745 7.666931,-2.969881 14.109696,-4.198114 23.511773,-4.482238 13.388433,-0.404586 23.537692,1.47195 31.762534,5.872706 2.83879,1.518912 4.01122,2.328772 10.79986,7.460048 6.71371,5.074642 7.05693,5.188953 7.44513,2.479668 0.28334,-1.977415 1.38466,-4.566707 2.64548,-6.219733 0.47303,-0.62016 2.19646,-2.202447 3.82984,-3.516189 3.42663,-2.756045 4.3662,-3.87806 4.88751,-5.836552 1.3266,-4.98381 -2.46326,-9.801513 -9.17924,-11.668718 -1.05914,-0.294469 -1.873,-0.620696 -1.80857,-0.724948 0.0644,-0.104253 -0.26269,-0.20036 -0.72695,-0.213565 -0.46427,-0.01319 -2.48971,-0.261166 -4.501,-0.551014 -2.46099,-0.354657 -7.86753,-0.634597 -16.5325,-0.856022 -12.643253,-0.323084 -17.115596,-0.619989 -20.012318,-1.328553 -2.000288,-0.489289 -4.330739,-1.695524 -4.930758,-2.552129 -0.824485,-1.177142 -0.626187,-3.264547 0.513235,-5.402331 1.869082,-3.506746 5.588866,-6.038462 10.990598,-7.480309 2.841619,-0.758495 3.64795,-0.829906 9.620373,-0.851994 4.04802,-0.01498 7.48301,0.136033 9.06271,0.398397 2.84681,0.472813 10.04117,2.260805 13.1966,3.279715 2.25446,0.727978 7.9096,3.051801 8.43809,3.467392 0.18115,0.142444 1.25435,0.716578 2.38493,1.275856 3.86231,1.910628 7.41788,4.522563 10.98881,8.072405 3.00682,2.989081 3.72337,3.905462 4.85538,6.209487 1.54643,3.147542 2.39854,6.749893 2.16254,9.142215 -0.16163,1.638454 -0.14888,1.669534 0.6868,1.674148 0.46833,0.0026 1.77406,0.222148 2.90162,0.487917 6.01049,1.416681 11.11178,6.064484 14.81602,13.498947 2.76388,5.54713 4.79369,12.981569 4.53202,16.599066 -0.16103,2.226344 -0.66638,2.776343 -3.13142,3.408113 -1.67723,0.429862 -2.2008,0.890926 -2.68477,2.364246 -0.64395,1.960394 -3.65166,2.956472 -10.17614,3.370088 -5.25226,0.332964 -6.84321,0.67487 -9.94689,2.137673 -4.69302,2.211872 -7.54094,6.335417 -8.52713,12.346567 -0.89412,5.44985 -2.67056,8.77412 -6.7405,12.61349 -2.41656,2.27966 -6.1387,4.57707 -6.92605,4.27494 -0.26754,-0.10267 -0.41235,-0.0668 -0.32178,0.0798 0.34132,0.55226 -2.62836,1.63098 -7.2864,2.64675 -4.27552,0.93235 -13.50203,1.00816 -16.69449,0.13716 -3.567339,-0.97329 -3.500525,-0.96942 -4.016597,-0.23263 -0.262399,0.37464 -1.750597,2.28873 -3.307121,4.25356 -2.830022,3.57239 -2.830022,3.57239 -1.526867,4.9002 2.820764,2.87418 7.61462,4.10368 14.892395,3.81956 5.34363,-0.2086 5.64779,-0.28207 11.76565,-2.84197 3.87094,-1.61971 4.92642,-1.93384 6.57733,-1.9575 1.73762,-0.0249 2.074,0.0748 2.89031,0.85682 2.01653,1.93181 3.11806,5.85187 2.32208,8.26371 -1.92014,5.81809 -17.07635,10.80619 -29.00855,9.54707 -4.743579,-0.50056 -6.522703,-1.27184 -9.62403,-4.17217 -2.700434,-2.5254 -7.736728,-6.40786 -8.317951,-6.41228 -0.187486,-9.5e-4 -1.332251,0.86122 -2.543925,1.91699 -5.381153,4.68875 -10.806095,7.34177 -18.198252,8.89967 -4.04337,0.85214 -10.662556,1.09891 -13.295228,0.49566 z m 35.462383,-37.88682 c 1.952009,-2.08669 1.952009,-2.08669 1.233832,-3.10041 -2.37027,-3.34571 -5.746716,-5.36577 -10.274801,-6.14717 -2.912598,-0.50263 -5.011937,-0.48007 -3.808758,0.041 1.742268,0.75442 4.750486,2.92844 6.046104,4.36947 0.799176,0.88886 2.118006,2.81035 2.930792,4.26997 0.812747,1.45964 1.577445,2.65388 1.699306,2.65388 0.12185,0 1.099956,-0.93901 2.173525,-2.08668 z M 162.99406,71.488799 c 2.61483,-2.200239 1.30588,-6.174441 -2.03362,-6.174441 -3.59333,0 -4.97242,4.54702 -1.93994,6.396221 1.38146,0.842416 2.80313,0.763064 3.97356,-0.22178 z"
     id="path4893"
     inkscape:connector-curvature="0"
     sodipodi:nodetypes="sssssssssscssssccsssssssssssccssscsssssssssscssssssssssssssssssssssscssscsssscscssss" />
</svg>
