<?xml version="1.0" encoding="UTF-8" standalone="no"?>
<svg
   xmlns:dc="http://purl.org/dc/elements/1.1/"
   xmlns:cc="http://creativecommons.org/ns#"
   xmlns:rdf="http://www.w3.org/1999/02/22-rdf-syntax-ns#"
   xmlns:svg="http://www.w3.org/2000/svg"
   xmlns="http://www.w3.org/2000/svg"
   xmlns:sodipodi="http://sodipodi.sourceforge.net/DTD/sodipodi-0.dtd"
   xmlns:inkscape="http://www.inkscape.org/namespaces/inkscape"
   version="1.1"
   id="svg2"
   viewBox="0 0 176.03452 171.63898"
   height="48.440334mm"
   width="49.680855mm"
   inkscape:version="0.91 r13725"
   sodipodi:docname="fuel_economy_electric.svg">
  <sodipodi:namedview
     pagecolor="#ffffff"
     bordercolor="#666666"
     borderopacity="1"
     objecttolerance="10"
     gridtolerance="10"
     guidetolerance="10"
     inkscape:pageopacity="0"
     inkscape:pageshadow="2"
     inkscape:window-width="1366"
     inkscape:window-height="708"
     id="namedview24"
     showgrid="false"
     inkscape:zoom="1.944514"
     inkscape:cx="10.344869"
     inkscape:cy="77.520175"
     inkscape:window-x="0"
     inkscape:window-y="31"
     inkscape:window-maximized="1"
     inkscape:current-layer="svg2" />
  <defs
     id="defs4">
    <marker
       orient="auto"
       refY="0"
       refX="0"
       id="marker6268"
       style="overflow:visible">
      <path
         id="path6270"
         d="M 0,0 5,-5 -12.5,0 5,5 0,0 Z"
         style="fill:#000000;fill-opacity:1;fill-rule:evenodd;stroke:#000000;stroke-width:1pt;stroke-opacity:1"
         transform="matrix(0.8,0,0,0.8,10,0)" />
    </marker>
    <marker
       orient="auto"
       refY="0"
       refX="0"
       id="marker6228"
       style="overflow:visible">
      <path
         id="path6230"
         d="M 0,0 5,-5 -12.5,0 5,5 0,0 Z"
         style="fill:#000000;fill-opacity:1;fill-rule:evenodd;stroke:#000000;stroke-width:1pt;stroke-opacity:1"
         transform="matrix(0.8,0,0,0.8,10,0)" />
    </marker>
    <marker
       orient="auto"
       refY="0"
       refX="0"
       id="marker6194"
       style="overflow:visible">
      <path
         id="path6196"
         d="M 0,0 5,-5 -12.5,0 5,5 0,0 Z"
         style="fill:#000000;fill-opacity:1;fill-rule:evenodd;stroke:#000000;stroke-width:1pt;stroke-opacity:1"
         transform="matrix(0.8,0,0,0.8,10,0)" />
    </marker>
    <marker
       style="overflow:visible"
       id="marker6154"
       refX="0"
       refY="0"
       orient="auto">
      <path
         transform="matrix(0.8,0,0,0.8,10,0)"
         style="fill:#000000;fill-opacity:1;fill-rule:evenodd;stroke:#000000;stroke-width:1pt;stroke-opacity:1"
         d="M 0,0 5,-5 -12.5,0 5,5 0,0 Z"
         id="path6156" />
    </marker>
    <marker
       style="overflow:visible"
       id="Arrow1Sstart"
       refX="0"
       refY="0"
       orient="auto">
      <path
         transform="matrix(0.2,0,0,0.2,1.2,0)"
         style="fill:#000000;fill-opacity:1;fill-rule:evenodd;stroke:#000000;stroke-width:1pt;stroke-opacity:1"
         d="M 0,0 5,-5 -12.5,0 5,5 0,0 Z"
         id="path4346" />
    </marker>
  </defs>
  <metadata
     id="metadata7">
    <rdf:RDF>
      <cc:Work
         rdf:about="">
        <dc:format>image/svg+xml</dc:format>
        <dc:type
           rdf:resource="http://purl.org/dc/dcmitype/StillImage" />
        <dc:title></dc:title>
      </cc:Work>
    </rdf:RDF>
  </metadata>
  <path
     style="fill:#000000;marker-end:"
     d="m 32.339374,10.364213 c -0.692856,1.927831 -6.889338,2.119311 -8.430518,5.423036 -3.180946,3.02913 -4.950424,7.180068 -4.371126,11.560418 -0.11691,38.862211 -0.233814,77.724423 -0.350713,116.586633 -3.325235,0.32777 -7.694611,-1.18568 -9.7913968,2.14089 -1.5652352,1.435 -1.2697676,3.25896 -1.2309148,6.26198 -1.2462308,4.1053 3.5068096,2.21133 5.9577666,2.61944 33.199676,0 66.399352,0 99.599028,0 -0.23873,-2.62545 0.46029,-5.64994 -0.33023,-8.0406 -1.82828,-2.00269 -3.65405,-3.99833 -6.60665,-3.02348 -5.70985,2.09824 -4.12941,-3.30822 -4.27149,-6.63251 0,-15.46486 0,-30.92973 0,-46.3946 4.53297,0.38744 9.54199,-1.18221 13.46087,1.728952 3.65389,1.047965 4.69168,5.290555 4.38607,8.676278 0.32852,19.29889 0.65702,38.59777 0.98553,57.89666 3.00191,4.3903 7.08273,8.53058 11.86262,10.6666 3.56391,-0.59627 7.56537,0.0108 10.85241,-1.342 2.75589,-2.10195 6.26187,-3.57324 7.12005,-7.26462 2.89222,-4.10525 1.47071,-9.18257 1.79664,-13.86613 0,-29.47581 0,-58.951612 0,-88.427416 5.59279,-0.253213 11.18558,-0.506338 16.77837,-0.759374 1.64758,-2.184328 3.67552,-4.246437 2.9236,-7.213726 0,-7.095194 0,-14.190387 0,-21.28558 -3.1109,0 -6.22181,0 -9.33271,0 -0.16366,-5.731982 0.28307,-11.524046 -0.27414,-17.216606 -4.69724,-4.7021227 -6.23748,3.012925 -5.46468,6.666596 -0.0138,3.516984 -0.0864,7.033352 -0.13119,10.55001 -4.61067,0 -9.22134,0 -13.83201,0 -0.15049,-5.301426 0.25378,-10.649225 -0.27245,-15.919149 -3.63894,-6.0385765 -6.69409,1.512513 -5.42623,5.36925 0.0331,3.606928 -0.17468,7.210385 -0.25485,10.815681 -3.33244,-0.05858 -6.66483,-0.07002 -9.99714,0.0038 -0.10549,8.269264 -0.14984,16.538833 -0.12531,24.808747 2.52053,1.830172 4.61701,4.866094 8.10599,3.960137 3.6932,0 7.38639,0 11.07959,0 0,33.126427 0,66.25285 0,99.37928 -2.3241,1.66599 -4.3331,4.1957 -6.83703,5.36877 -2.97393,-0.32013 -6.5871,1.08467 -8.61359,-1.79197 -2.12426,-1.73443 -4.68509,-3.26378 -3.7876,-6.41611 -0.3259,-19.90727 -0.65426,-39.81451 -0.9839,-59.721722 -2.51108,-3.050582 -3.99838,-7.280631 -8.11771,-8.478411 -4.01748,-2.924521 -9.18318,-1.521983 -13.8154,-2.130009 -3.76428,0.781949 -1.45589,-4.270346 -2.08589,-6.499623 -0.10496,-18.303477 0.20692,-36.676917 -0.14121,-54.936857 -1.6523,-6.030717 -6.542348,-11.445337 -12.851663,-12.507598 -0.311637,-1.4026701 -5.264138,-0.229041 -7.407456,-0.615093 -16.591112,-6e-6 -33.182225,9e-6 -49.773337,2.6e-5 z m 1.655437,11.204563 c 17.944009,0 35.888017,0 53.832026,0 3.220596,1.509179 4.492919,4.632444 3.838633,7.96704 0,10.944708 0,21.889417 0,32.834125 -1.923361,2.013233 -3.609624,4.588548 -6.773291,3.662629 -16.960727,-0.008 -33.921454,-0.01338 -50.882182,-0.01764 -3.298052,-1.873087 -4.377125,-5.180087 -3.790251,-8.721486 0.128758,-10.488732 -0.266376,-21.095285 0.189673,-31.510412 0.5314,-2.014381 2.048436,-2.984645 3.585392,-4.214257 z m 31.464666,49.71242 c -0.500122,8.860026 -2.019244,17.633189 -3.07927,26.441401 2.376466,1.819535 6.151466,-1.012828 9.040013,-0.635978 6.063929,-1.997887 3.259158,1.927255 1.38286,4.942191 -7.16588,12.35831 -13.696326,25.1577 -21.630082,37.01363 -0.480015,-2.08995 1.956786,-11.0148 2.190663,-15.33525 0.221562,-5.91279 5.604858,-17.88779 -4.883471,-13.16375 -4.202375,1.19011 -7.780569,1.47053 -3.349047,-3.77782 6.603052,-11.920723 13.124253,-23.916762 20.328334,-35.484424 z"
     id="path7705"
     inkscape:connector-curvature="0" />
</svg>
