<?xml version="1.0" encoding="UTF-8" standalone="no"?>
<svg
   xmlns:dc="http://purl.org/dc/elements/1.1/"
   xmlns:cc="http://creativecommons.org/ns#"
   xmlns:rdf="http://www.w3.org/1999/02/22-rdf-syntax-ns#"
   xmlns:svg="http://www.w3.org/2000/svg"
   xmlns="http://www.w3.org/2000/svg"
   xmlns:sodipodi="http://sodipodi.sourceforge.net/DTD/sodipodi-0.dtd"
   xmlns:inkscape="http://www.inkscape.org/namespaces/inkscape"
   version="1.1"
   id="svg2"
   viewBox="0 0 176.03452 171.63898"
   height="48.440334mm"
   width="49.680855mm"
   inkscape:version="0.91 r13725"
   sodipodi:docname="fuel_economy.svg">
  <sodipodi:namedview
     pagecolor="#ffffff"
     bordercolor="#666666"
     borderopacity="1"
     objecttolerance="10"
     gridtolerance="10"
     guidetolerance="10"
     inkscape:pageopacity="0"
     inkscape:pageshadow="2"
     inkscape:window-width="1366"
     inkscape:window-height="708"
     id="namedview24"
     showgrid="false"
     inkscape:zoom="1.944514"
     inkscape:cx="87.314669"
     inkscape:cy="62.584659"
     inkscape:window-x="0"
     inkscape:window-y="31"
     inkscape:window-maximized="1"
     inkscape:current-layer="svg2" />
  <defs
     id="defs4">
    <marker
       orient="auto"
       refY="0"
       refX="0"
       id="marker6268"
       style="overflow:visible">
      <path
         id="path6270"
         d="M 0,0 5,-5 -12.5,0 5,5 0,0 Z"
         style="fill:#000000;fill-opacity:1;fill-rule:evenodd;stroke:#000000;stroke-width:1pt;stroke-opacity:1"
         transform="matrix(0.8,0,0,0.8,10,0)" />
    </marker>
    <marker
       orient="auto"
       refY="0"
       refX="0"
       id="marker6228"
       style="overflow:visible">
      <path
         id="path6230"
         d="M 0,0 5,-5 -12.5,0 5,5 0,0 Z"
         style="fill:#000000;fill-opacity:1;fill-rule:evenodd;stroke:#000000;stroke-width:1pt;stroke-opacity:1"
         transform="matrix(0.8,0,0,0.8,10,0)" />
    </marker>
    <marker
       orient="auto"
       refY="0"
       refX="0"
       id="marker6194"
       style="overflow:visible">
      <path
         id="path6196"
         d="M 0,0 5,-5 -12.5,0 5,5 0,0 Z"
         style="fill:#000000;fill-opacity:1;fill-rule:evenodd;stroke:#000000;stroke-width:1pt;stroke-opacity:1"
         transform="matrix(0.8,0,0,0.8,10,0)" />
    </marker>
    <marker
       style="overflow:visible"
       id="marker6154"
       refX="0"
       refY="0"
       orient="auto">
      <path
         transform="matrix(0.8,0,0,0.8,10,0)"
         style="fill:#000000;fill-opacity:1;fill-rule:evenodd;stroke:#000000;stroke-width:1pt;stroke-opacity:1"
         d="M 0,0 5,-5 -12.5,0 5,5 0,0 Z"
         id="path6156" />
    </marker>
    <marker
       style="overflow:visible"
       id="Arrow1Sstart"
       refX="0"
       refY="0"
       orient="auto">
      <path
         transform="matrix(0.2,0,0,0.2,1.2,0)"
         style="fill:#000000;fill-opacity:1;fill-rule:evenodd;stroke:#000000;stroke-width:1pt;stroke-opacity:1"
         d="M 0,0 5,-5 -12.5,0 5,5 0,0 Z"
         id="path4346" />
    </marker>
  </defs>
  <metadata
     id="metadata7">
    <rdf:RDF>
      <cc:Work
         rdf:about="">
        <dc:format>image/svg+xml</dc:format>
        <dc:type
           rdf:resource="http://purl.org/dc/dcmitype/StillImage" />
        <dc:title></dc:title>
      </cc:Work>
    </rdf:RDF>
  </metadata>
  <path
     style="fill:#000000"
     d="m 9.68202,150.27126 c -0.3456298,-3.10039 0.2044327,-3.30405 1.357779,-5.22471 2.404206,-2.95254 6.408424,-1.50842 9.725126,-1.83963 0.121113,-40.60013 0.242236,-81.200256 0.36337,-121.800384 1.290891,-3.279924 3.178742,-6.348369 6.038676,-8.635015 1.665105,-2.311076 6.791863,-2.3025 7.229328,-3.831296 l 57.451121,0 c 2.897379,2.190101 10.99449,5.399843 11.9416,11.509421 1.54347,4.184323 0.38671,8.829917 0.74208,13.217197 -0.005,15.845849 -0.0108,31.691697 -0.0162,47.537546 2.87881,1.339281 6.48183,-0.43604 9.47469,1.046785 4.23104,0.524917 7.54949,3.256637 9.99665,6.596687 2.49405,4.271614 3.05395,9.464534 2.9612,14.421399 0.16357,8.54037 0.23986,17.2367 3.1494,25.36654 1.7913,1.82713 3.29491,4.3312 6.22109,3.48824 2.40724,-0.24004 4.68304,-2.97393 5.06597,-5.41102 1.67824,-3.78428 1.38433,-8.11858 2.35891,-12.01415 0.0273,-10.21566 0.0545,-20.431328 0.0818,-30.646994 -1.95745,-1.660424 -3.56017,-4.17319 -5.72145,-5.343815 -2.85888,-1.913437 -5.14704,-5.274172 -7.51445,-7.927173 -2.53563,-2.637171 -3.52451,-6.204529 -3.15248,-9.810494 -0.006,-5.194273 -0.0123,-10.388546 -0.0185,-15.582819 -5.35905,-5.649471 -11.46925,-10.649312 -16.29062,-16.763783 -1.91015,-2.40487 -1.41855,-6.705873 1.63428,-7.930021 1.88231,-0.740763 5.117,-1.165916 6.52311,0.670489 11.02047,11.242854 22.91324,21.786858 32.32937,34.458632 1.6168,1.505341 2.29025,5.614065 2.97251,6.273794 0.84972,-1.940961 0.19159,4.120109 0.40319,5.56556 2.60777,15.402667 -1.59032,48.236784 -1.17888,52.709424 0.16193,3.5237 -0.83985,6.62459 -2.01512,9.89348 -1.82287,5.82062 -6.58692,11.36794 -12.66363,12.55741 -3.8903,-0.048 -7.89927,0.56303 -11.43684,-1.44363 -2.51571,-1.46076 -4.45857,-4.05987 -6.4517,-6.17298 -3.65156,-6.88879 -4.74776,-14.76162 -5.21916,-22.44505 -0.3187,-5.24351 0.28148,-10.64174 -0.63616,-15.784403 -0.18978,-2.874688 -2.88919,-4.025067 -5.4562,-3.971311 -2.70316,-0.545894 -6.72205,-0.806732 -5.40659,3.15855 l 0,46.783784 c 2.86481,1.40121 7.04778,-1.55846 9.10761,1.49888 2.34008,1.29809 2.4013,3.56475 2.15699,5.96128 0.67755,3.20497 -0.36964,4.68519 -3.70003,3.88222 l -102.405176,0 c -0.00172,-1.33872 0.00346,-2.68412 -0.00261,-4.01864 z M 91.82814,63.058726 c 2.709677,-1.536642 1.578408,-4.63474 1.79329,-7.185589 l 0,-31.80792 c -1.469243,-2.992851 -4.338921,-4.531052 -7.560451,-3.860406 l -50.413828,0 c -2.63169,1.582341 -4.390056,4.386849 -3.798888,7.52981 0.0017,10.995462 0.0033,21.990924 0.005,32.986386 1.488606,2.996758 4.163936,4.925549 7.510665,4.160592 l 50.671575,0.01827 c 0.597161,-0.613565 1.197197,-1.228194 1.79267,-1.841139 z"
     id="path7705"
     inkscape:connector-curvature="0"
     sodipodi:nodetypes="ccccccccccccccccccccccccccccccccccccccccccccaccccccccca" />
</svg>
