<?xml version="1.0" encoding="UTF-8" standalone="no"?>
<svg
   xmlns:dc="http://purl.org/dc/elements/1.1/"
   xmlns:cc="http://creativecommons.org/ns#"
   xmlns:rdf="http://www.w3.org/1999/02/22-rdf-syntax-ns#"
   xmlns:svg="http://www.w3.org/2000/svg"
   xmlns="http://www.w3.org/2000/svg"
   xmlns:sodipodi="http://sodipodi.sourceforge.net/DTD/sodipodi-0.dtd"
   xmlns:inkscape="http://www.inkscape.org/namespaces/inkscape"
   version="1.1"
   id="svg2"
   viewBox="0 0 176.03452 171.63898"
   height="48.440334mm"
   width="49.680855mm"
   inkscape:version="0.91 r13725"
   sodipodi:docname="other.svg">
  <sodipodi:namedview
     pagecolor="#ffffff"
     bordercolor="#666666"
     borderopacity="1"
     objecttolerance="10"
     gridtolerance="10"
     guidetolerance="10"
     inkscape:pageopacity="0"
     inkscape:pageshadow="2"
     inkscape:window-width="1366"
     inkscape:window-height="708"
     id="namedview24"
     showgrid="false"
     inkscape:zoom="2.8284271"
     inkscape:cx="53.131802"
     inkscape:cy="87.913702"
     inkscape:window-x="0"
     inkscape:window-y="31"
     inkscape:window-maximized="1"
     inkscape:current-layer="flowRoot4206" />
  <defs
     id="defs4">
    <marker
       orient="auto"
       refY="0"
       refX="0"
       id="marker6268"
       style="overflow:visible">
      <path
         id="path6270"
         d="M 0,0 5,-5 -12.5,0 5,5 0,0 Z"
         style="fill:#000000;fill-opacity:1;fill-rule:evenodd;stroke:#000000;stroke-width:1pt;stroke-opacity:1"
         transform="matrix(0.8,0,0,0.8,10,0)" />
    </marker>
    <marker
       orient="auto"
       refY="0"
       refX="0"
       id="marker6228"
       style="overflow:visible">
      <path
         id="path6230"
         d="M 0,0 5,-5 -12.5,0 5,5 0,0 Z"
         style="fill:#000000;fill-opacity:1;fill-rule:evenodd;stroke:#000000;stroke-width:1pt;stroke-opacity:1"
         transform="matrix(0.8,0,0,0.8,10,0)" />
    </marker>
    <marker
       orient="auto"
       refY="0"
       refX="0"
       id="marker6194"
       style="overflow:visible">
      <path
         id="path6196"
         d="M 0,0 5,-5 -12.5,0 5,5 0,0 Z"
         style="fill:#000000;fill-opacity:1;fill-rule:evenodd;stroke:#000000;stroke-width:1pt;stroke-opacity:1"
         transform="matrix(0.8,0,0,0.8,10,0)" />
    </marker>
    <marker
       style="overflow:visible"
       id="marker6154"
       refX="0"
       refY="0"
       orient="auto">
      <path
         transform="matrix(0.8,0,0,0.8,10,0)"
         style="fill:#000000;fill-opacity:1;fill-rule:evenodd;stroke:#000000;stroke-width:1pt;stroke-opacity:1"
         d="M 0,0 5,-5 -12.5,0 5,5 0,0 Z"
         id="path6156" />
    </marker>
    <marker
       style="overflow:visible"
       id="Arrow1Sstart"
       refX="0"
       refY="0"
       orient="auto">
      <path
         transform="matrix(0.2,0,0,0.2,1.2,0)"
         style="fill:#000000;fill-opacity:1;fill-rule:evenodd;stroke:#000000;stroke-width:1pt;stroke-opacity:1"
         d="M 0,0 5,-5 -12.5,0 5,5 0,0 Z"
         id="path4346" />
    </marker>
  </defs>
  <metadata
     id="metadata7">
    <rdf:RDF>
      <cc:Work
         rdf:about="">
        <dc:format>image/svg+xml</dc:format>
        <dc:type
           rdf:resource="http://purl.org/dc/dcmitype/StillImage" />
        <dc:title></dc:title>
      </cc:Work>
    </rdf:RDF>
  </metadata>
  <circle
     style="opacity:1;fill:none;fill-opacity:1;fill-rule:nonzero;stroke:#ff0000;stroke-width:15;stroke-linejoin:round;stroke-miterlimit:4;stroke-dasharray:none;stroke-opacity:1"
     id="path4214"
     cx="88.225227"
     cy="85.548729"
     r="77.251419" />
  <path
     style="fill:none;fill-rule:evenodd;stroke:#ff0000;stroke-width:15;stroke-linecap:butt;stroke-linejoin:miter;stroke-miterlimit:4;stroke-dasharray:none;stroke-opacity:1"
     d="M 38.537305,27.742748 135.41095,146.18314"
     id="path4216"
     inkscape:connector-curvature="0"
     sodipodi:nodetypes="cc" />
  <g
     transform="translate(-25.577172,50.204582)"
     style="font-style:normal;font-weight:normal;font-size:40px;line-height:125%;font-family:sans-serif;letter-spacing:0px;word-spacing:0px;fill:#000000;fill-opacity:1;stroke:none;stroke-width:1px;stroke-linecap:butt;stroke-linejoin:miter;stroke-opacity:1"
     id="flowRoot4206">
    <path
       d="m 56.605156,59.478379 8.625,0 0,-41.9175 -8.625,0 0,28.52 -16.6175,-28.52 -8.855,0 0,41.9175 8.625,0 0,-28.98 16.8475,28.98 z"
       style="font-style:normal;font-variant:normal;font-weight:bold;font-stretch:normal;font-size:57.5px;font-family:arial;-inkscape-font-specification:arial"
       id="path4219" />
    <path
       d="m 103.67789,30.325879 c 0,-3.8525 -0.8625,-6.3825 -2.9325,-8.6825 -2.817499,-3.105 -7.474999,-4.7725 -13.512499,-4.7725 -10.0625,0 -15.87,4.715 -15.87,12.88 0,6.4975 3.2775,9.66 11.7875,11.27 l 5.865,1.15 c 5.75,1.0925 7.8775,2.7025 7.8775,6.095 0,3.5075 -3.22,5.635 -8.4525,5.635 -5.865,0 -9.1425,-2.4725 -9.43,-6.9575 l -8.395,0 c 0.5175,8.97 6.67,13.8575 17.365,13.8575 10.81,0 17.192499,-5.06 17.192499,-13.57 0,-6.6125 -3.335,-10.0625 -11.097499,-11.5575 l -6.555,-1.265 c -6.1525,-1.2075 -7.935,-2.415 -7.935,-5.4625 0,-3.1625 2.8175,-5.175 7.245,-5.175 5.4625,0 8.51,2.3 8.7975,6.555 l 8.049999,0 z"
       style="font-style:normal;font-variant:normal;font-weight:bold;font-stretch:normal;font-size:57.5px;font-family:arial;-inkscape-font-specification:arial"
       id="path4221" />
    <path
       d="m 120.06359,41.423379 18.3425,0 0,-7.1875 -18.3425,0 0,-9.4875 20.815,0 0,-7.1875 -29.44,0 0,41.9175 8.625,0 0,-18.055 z"
       style="font-style:normal;font-variant:normal;font-weight:bold;font-stretch:normal;font-size:57.5px;font-family:arial;-inkscape-font-specification:arial"
       id="path4223" />
    <path
       d="m 184.30996,59.478379 11.615,-41.9175 -9.1425,0 -6.2675,31.4525 -6.785,-31.4525 -8.51,0 -6.4975,31.395 -6.4975,-31.395 -9.1425,0 11.845,41.9175 7.7625,0 6.8425,-32.7175 7.015,32.7175 7.7625,0 z"
       style="font-style:normal;font-variant:normal;font-weight:bold;font-stretch:normal;font-size:57.5px;font-family:arial;-inkscape-font-specification:arial"
       id="path4225" />
  </g>
</svg>
