<?xml version="1.0" encoding="UTF-8" standalone="no"?>
<svg
   xmlns:dc="http://purl.org/dc/elements/1.1/"
   xmlns:cc="http://creativecommons.org/ns#"
   xmlns:rdf="http://www.w3.org/1999/02/22-rdf-syntax-ns#"
   xmlns:svg="http://www.w3.org/2000/svg"
   xmlns="http://www.w3.org/2000/svg"
   xmlns:sodipodi="http://sodipodi.sourceforge.net/DTD/sodipodi-0.dtd"
   xmlns:inkscape="http://www.inkscape.org/namespaces/inkscape"
   version="1.1"
   id="svg2"
   viewBox="0 0 176.03452 171.63898"
   height="48.440334mm"
   width="49.680855mm"
   inkscape:version="0.91 r13725"
   sodipodi:docname="temperature.svg"
   inkscape:export-filename="/home/jono/Downloads/Makerstoolbox/converter/icons/volume.png"
   inkscape:export-xdpi="300"
   inkscape:export-ydpi="300">
  <sodipodi:namedview
     pagecolor="#ffffff"
     bordercolor="#666666"
     borderopacity="1"
     objecttolerance="10"
     gridtolerance="10"
     guidetolerance="10"
     inkscape:pageopacity="0"
     inkscape:pageshadow="2"
     inkscape:window-width="1366"
     inkscape:window-height="708"
     id="namedview24"
     showgrid="false"
     inkscape:zoom="3.6203869"
     inkscape:cx="114.41069"
     inkscape:cy="97.833206"
     inkscape:window-x="0"
     inkscape:window-y="31"
     inkscape:window-maximized="1"
     inkscape:current-layer="svg2" />
  <defs
     id="defs4">
    <inkscape:perspective
       sodipodi:type="inkscape:persp3d"
       inkscape:vp_x="-73.5235 : 9.0040326e-15 : 0"
       inkscape:vp_y="0 : 1000 : 0"
       inkscape:vp_z="220.7659 : 127.45926 : 0"
       inkscape:persp3d-origin="128.74515 : 39.758181 : 1"
       id="perspective4203" />
    <marker
       orient="auto"
       refY="0"
       refX="0"
       id="marker6268"
       style="overflow:visible">
      <path
         id="path6270"
         d="M 0,0 5,-5 -12.5,0 5,5 0,0 Z"
         style="fill:#000000;fill-opacity:1;fill-rule:evenodd;stroke:#000000;stroke-width:1pt;stroke-opacity:1"
         transform="matrix(0.8,0,0,0.8,10,0)" />
    </marker>
    <marker
       orient="auto"
       refY="0"
       refX="0"
       id="marker6228"
       style="overflow:visible">
      <path
         id="path6230"
         d="M 0,0 5,-5 -12.5,0 5,5 0,0 Z"
         style="fill:#000000;fill-opacity:1;fill-rule:evenodd;stroke:#000000;stroke-width:1pt;stroke-opacity:1"
         transform="matrix(0.8,0,0,0.8,10,0)" />
    </marker>
    <marker
       orient="auto"
       refY="0"
       refX="0"
       id="marker6194"
       style="overflow:visible">
      <path
         id="path6196"
         d="M 0,0 5,-5 -12.5,0 5,5 0,0 Z"
         style="fill:#000000;fill-opacity:1;fill-rule:evenodd;stroke:#000000;stroke-width:1pt;stroke-opacity:1"
         transform="matrix(0.8,0,0,0.8,10,0)" />
    </marker>
    <marker
       style="overflow:visible"
       id="marker6154"
       refX="0"
       refY="0"
       orient="auto">
      <path
         transform="matrix(0.8,0,0,0.8,10,0)"
         style="fill:#000000;fill-opacity:1;fill-rule:evenodd;stroke:#000000;stroke-width:1pt;stroke-opacity:1"
         d="M 0,0 5,-5 -12.5,0 5,5 0,0 Z"
         id="path6156" />
    </marker>
    <marker
       style="overflow:visible"
       id="Arrow1Sstart"
       refX="0"
       refY="0"
       orient="auto">
      <path
         transform="matrix(0.2,0,0,0.2,1.2,0)"
         style="fill:#000000;fill-opacity:1;fill-rule:evenodd;stroke:#000000;stroke-width:1pt;stroke-opacity:1"
         d="M 0,0 5,-5 -12.5,0 5,5 0,0 Z"
         id="path4346" />
    </marker>
  </defs>
  <metadata
     id="metadata7">
    <rdf:RDF>
      <cc:Work
         rdf:about="">
        <dc:format>image/svg+xml</dc:format>
        <dc:type
           rdf:resource="http://purl.org/dc/dcmitype/StillImage" />
        <dc:title></dc:title>
      </cc:Work>
    </rdf:RDF>
  </metadata>
  <path
     style="fill:#ff0000;fill-opacity:1"
     d="m 80.022445,157.00053 c -3.431427,-0.73808 -7.398763,-3.20279 -9.424667,-5.85508 -2.166077,-2.83579 -3.275245,-5.65907 -3.551701,-9.04055 -0.528823,-6.46837 3.024674,-12.67184 8.949662,-15.62373 1.266442,-0.63095 2.536001,-1.14719 2.82124,-1.14719 0.505267,0 0.518613,-0.89958 0.518613,-34.955858 l 0,-51.91344 4.127594,0 4.12759,0 0.0699,51.806206 0.0699,34.848622 1.51383,0.58962 c 2.74888,1.07067 3.96777,1.87502 6.05535,3.99585 3.41091,3.46526 4.877824,7.30936 4.581479,12.00596 -0.17062,2.70395 -0.594649,4.33434 -1.701859,6.54357 -1.79557,3.58273 -4.96868,6.44752 -8.79735,7.94255 -1.89739,0.74091 -2.62069,0.87233 -5.22961,0.9502 -1.66522,0.0497 -3.52368,-0.0163 -4.129901,-0.14673 z"
     id="path4796"
     inkscape:connector-curvature="0"
     sodipodi:nodetypes="cssssscccccsssssscc" />
  <path
     style="fill:#000000;marker-end:"
     d="m 105.55513,31.108494 c -0.0643,-0.167536 -0.0874,-1.666766 -0.0511,-3.331624 l 0.0658,-3.027011 9.99487,-0.06096 9.99487,-0.06095 0,3.392582 0,3.392584 -9.94376,0 c -7.9546,0 -9.96715,-0.06094 -10.06066,-0.304614 z"
     id="path11396" />
  <path
     style="fill:#000000;marker-end:"
     d="m 105.50493,54.734475 0.0649,-3.331624 9.99487,-0.06096 9.99487,-0.06095 0,3.392582 0,3.392584 -10.05974,0 -10.05974,0 0.0649,-3.331623 z"
     id="path11394" />
  <path
     style="fill:#000000;marker-end:"
     d="m 105.60878,84.797023 c -0.0858,-0.08573 -0.18979,-1.618915 -0.15587,-3.390073 l 0,-3.234207 10.05332,0 10.05332,0 0,3.390072 0,3.390075 -9.89744,0 c -5.44293,0 -9.96761,-0.07014 -10.05333,-0.155867 z"
     id="path11392" />
  <path
     style="fill:#000000;marker-end:"
     d="m 105.55518,111.30127 c -0.0643,-0.16753 -0.0874,-1.66676 -0.0511,-3.33162 l 0.0658,-3.02701 9.99487,-0.0609 9.99487,-0.0609 0,3.39258 0,3.39258 -9.94376,0 c -7.9546,0 -9.96715,-0.0609 -10.06065,-0.30461 z"
     id="path11390" />
  <path
     style="fill:#000000;marker-end:"
     d="m 83.475075,1.9668084 c -1.369369,0 -2.738098,0.1146131 -3.63256,0.3412189 -2.620893,0.6639798 -5.155633,2.1097991 -7.122944,4.0614521 -1.958452,1.942867 -3.1364,3.8369626 -4.011691,6.4570936 l -0.545003,1.635007 -0.118483,52.737273 -0.116105,52.734907 -2.153945,2.04968 c -1.184905,1.12758 -2.675238,2.75354 -3.310297,3.61123 -4.997001,6.74872 -6.297859,15.76983 -3.431146,23.79054 3.162716,8.8489 10.758774,15.21561 20.21485,16.94247 l 0,-0.002 c 0.589017,0.10725 2.806999,0.16075 4.928717,0.1161 3.283806,-0.069 4.184836,-0.1713 6.054265,-0.69191 14.662517,-4.08325 22.762007,-19.51035 17.691247,-33.69773 -1.40039,-3.91808 -3.43013,-6.93401 -6.83148,-10.15363 L 99.024228,119.94081 98.905745,67.201162 98.789639,14.461519 98.242267,12.826513 C 96.490972,7.584107 92.299324,3.6226353 87.11,2.3079666 86.215539,2.0813621 84.844442,1.9667477 83.475072,1.9667477 Z"
     id="path11388" />
  <path
     style="fill:#ff0000"
     d="m 92.346766,61.316671 c 0.163194,1.005832 0.245222,6.03219 0.246436,41.590659 l 0,20.55947 0.995221,0.65163 c 4.529341,2.96404 7.580167,7.01039 8.876427,11.77205 0.69088,2.53787 0.68555,7.12803 -0.0121,9.69394 -2.03511,7.48769 -8.338902,13.18574 -15.937761,14.40464 -7.449771,1.195 -15.0746,-2.16295 -19.264649,-8.48308 -2.372585,-3.57873 -3.272592,-6.58818 -3.258167,-10.90952 0.01153,-3.44957 0.479994,-5.49697 1.905138,-8.33143 1.663166,-3.30788 4.049959,-5.91076 7.466533,-8.1466 l 0.992853,-0.65163 0.0024,-20.55947 c 0.0012,-35.558469 0.08086,-40.584827 0.244067,-41.590659 2.129332,-10.367197 15.958693,-9.810122 17.743602,0 z"
     id="path4786"
     inkscape:connector-curvature="0"
     sodipodi:nodetypes="ccccscssssccccc" />
  <path
     style="fill:#ffffff"
     d="m 92.30631,15.811027 c 0.163194,1.005832 0.245222,18.922813 0.246436,54.48128 -6.892543,0 -10.816813,3.36e-4 -18.234105,0 0.0012,-35.558467 0.08086,-53.475448 0.244067,-54.48128 2.129332,-10.3671958 15.958693,-9.8101208 17.743602,0 z"
     id="path4786-6"
     inkscape:connector-curvature="0"
     sodipodi:nodetypes="ccccc" />
</svg>
