<?xml version="1.0" encoding="UTF-8" standalone="no"?>
<!-- Created with Inkscape (http://www.inkscape.org/) -->

<svg
   width="58.583553mm"
   height="71.168098mm"
   viewBox="0 0 58.583553 71.168098"
   version="1.1"
   id="svg1"
   xml:space="preserve"
   inkscape:version="1.3 (0e150ed6c4, 2023-07-21)"
   sodipodi:docname="cut.svg"
   inkscape:dataloss="true"
   xmlns:inkscape="http://www.inkscape.org/namespaces/inkscape"
   xmlns:sodipodi="http://sodipodi.sourceforge.net/DTD/sodipodi-0.dtd"
   xmlns="http://www.w3.org/2000/svg"
   xmlns:svg="http://www.w3.org/2000/svg"><sodipodi:namedview
     id="namedview1"
     pagecolor="#ffffff"
     bordercolor="#000000"
     borderopacity="0.25"
     inkscape:showpageshadow="2"
     inkscape:pageopacity="0.0"
     inkscape:pagecheckerboard="0"
     inkscape:deskcolor="#d1d1d1"
     inkscape:document-units="mm"
     inkscape:zoom="0.73139029"
     inkscape:cx="397.18876"
     inkscape:cy="560.57621"
     inkscape:window-width="1350"
     inkscape:window-height="1040"
     inkscape:window-x="2187"
     inkscape:window-y="1164"
     inkscape:window-maximized="0"
     inkscape:current-layer="layer1" /><defs
     id="defs1" /><g
     inkscape:label="Layer 1"
     inkscape:groupmode="layer"
     id="layer1"
     transform="translate(-66.517725,-82.460882)"><path
       style="fill:#000000"
       d="m 74.638853,153.25917 c -2.769446,-0.76232 -5.432654,-3.00153 -6.782392,-5.70259 -3.236503,-6.47682 -0.398211,-15.12035 6.289332,-19.1531 2.606627,-1.57185 3.75098,-1.85827 7.546474,-1.88877 l 3.42226,-0.0275 2.493967,-3.28552 c 1.371682,-1.80704 2.665368,-3.54162 2.874859,-3.85464 0.361784,-0.54056 -0.188603,-1.3006 -10.971511,-15.15077 L 68.159439,89.614624 67.991084,87.832063 c -0.0926,-0.980409 -0.169202,-2.53944 -0.170237,-3.464515 -0.0017,-1.494079 0.04984,-1.661951 0.46114,-1.502888 0.254661,0.09849 1.723095,0.587022 3.263186,1.085635 l 2.800164,0.906568 6.321099,8.136944 c 3.476604,4.47532 8.211648,10.577723 10.522319,13.560903 2.310671,2.98318 4.290237,5.51925 4.399036,5.63572 0.108798,0.11646 3.603155,-4.28885 7.765239,-9.78959 4.16208,-5.500735 8.91926,-11.787276 10.57151,-13.970088 l 3.0041,-3.96875 2.51716,-0.819218 c 1.38444,-0.450569 2.8423,-0.900821 3.23968,-1.000558 l 0.72252,-0.181341 -0.17493,3.381808 -0.17494,3.381809 -3.48641,4.630208 c -4.53635,6.024594 -14.59949,19.32495 -16.88836,22.32116 -0.98531,1.28982 -1.79148,2.45798 -1.79148,2.5959 0,0.13793 1.33735,1.97201 2.97189,4.07575 2.13039,2.74192 3.08558,3.77945 3.37344,3.66422 0.88023,-0.35235 4.44626,-0.42785 5.90334,-0.12498 4.75182,0.98771 9.38023,5.07816 11.34602,10.02728 0.50939,1.28245 0.59485,2.00097 0.60401,5.07855 l 0.0107,3.58476 -0.99462,2.01331 c -1.70358,3.4484 -4.73346,5.68874 -8.50934,6.29194 -1.76113,0.28134 -2.47109,0.23781 -5.04813,-0.30949 -3.73071,-0.79232 -8.16958,-4.41313 -10.02019,-8.17353 -2.066159,-4.19838 -2.263341,-8.79593 -0.52442,-12.22753 0.42042,-0.82965 0.56668,-1.39861 0.41083,-1.59814 -0.13311,-0.1704 -1.166242,-1.50045 -2.295857,-2.95566 -1.129614,-1.45521 -2.152183,-2.64583 -2.272374,-2.64583 -0.120191,0 -1.24027,1.33769 -2.489064,2.97266 l -2.270534,2.97265 0.537796,1.05417 c 3.810287,7.46878 -0.886148,17.63567 -9.503594,20.57347 -2.006649,0.68409 -5.420088,0.78162 -7.48291,0.2138 z m 7.570343,-5.63974 c 5.306593,-2.87429 7.426331,-10.12757 4.128846,-14.12799 -3.450288,-4.1858 -11.003944,-2.02642 -13.837768,3.95582 -0.765632,1.61626 -0.84485,2.01917 -0.84485,4.29703 0,2.27075 0.07088,2.63413 0.733811,3.76188 1.870909,3.18271 6.146707,4.10287 9.819961,2.11326 z m 34.511124,0.22885 c 2.39662,-1.23543 3.56931,-3.3309 3.56404,-6.36857 -0.0133,-7.65311 -8.94311,-13.21696 -14.11194,-8.79263 -3.38933,2.90113 -3.04424,8.68319 0.7567,12.67881 2.74959,2.89042 6.93913,3.95261 9.7912,2.48239 z"
       id="path1" /></g></svg>
